<?xml version="1.0" standalone="no"?>
<!DOCTYPE svg PUBLIC "-//W3C//DTD SVG 20010904//EN"
 "http://www.w3.org/TR/2001/REC-SVG-20010904/DTD/svg10.dtd">
<svg version="1.0" xmlns="http://www.w3.org/2000/svg"
 width="241.000000pt" height="129.000000pt" viewBox="0 0 241.000000 129.000000"
 preserveAspectRatio="xMidYMid meet">

<g transform="translate(0.000000,129.000000) scale(0.100000,-0.100000)"
fill="#000000" stroke="none">
<path d="M1560 1230 c-30 -11 -74 -19 -97 -20 -50 0 -164 -41 -207 -74 -17
-13 -42 -27 -56 -31 -29 -9 -153 -100 -189 -139 -14 -14 -32 -26 -41 -26 -9 0
-48 -27 -86 -61 -38 -33 -101 -83 -141 -110 -53 -36 -78 -61 -99 -99 -24 -44
-31 -50 -59 -50 -18 0 -47 -11 -66 -25 -19 -14 -54 -37 -78 -52 -138 -87 -197
-130 -301 -217 -63 -52 -115 -101 -115 -108 0 -26 96 -10 168 26 37 19 67 31
67 27 0 -4 -20 -27 -45 -51 -57 -56 -78 -99 -65 -134 6 -17 17 -26 32 -26 23
0 138 83 223 160 87 80 174 140 203 140 5 0 12 -9 15 -20 4 -15 14 -20 41 -20
29 0 39 -5 48 -25 8 -19 19 -25 42 -25 20 0 36 -7 44 -20 13 -21 56 -27 67
-10 3 6 18 -4 32 -21 22 -26 32 -30 59 -26 17 3 36 1 41 -4 5 -5 35 -11 66
-13 45 -3 62 0 81 15 29 23 42 24 50 4 8 -21 45 -19 84 5 27 16 36 18 52 8 15
-10 26 -9 56 6 34 16 38 16 47 1 13 -24 53 -36 82 -25 17 6 33 6 50 -2 18 -8
31 -8 49 0 20 9 27 8 37 -4 9 -11 22 -14 44 -10 24 5 36 1 50 -14 23 -25 51
-26 67 0 10 16 20 18 49 14 29 -5 39 -2 50 13 8 11 31 23 52 27 21 4 41 14 44
22 3 7 18 14 33 14 15 0 39 9 53 20 14 11 35 20 47 20 13 0 24 8 27 19 4 16
15 21 51 23 42 3 47 6 52 30 3 14 18 37 34 49 25 20 28 27 23 65 -3 30 0 47 9
55 17 14 18 41 3 56 -9 9 -8 16 5 28 24 24 20 54 -9 67 -18 8 -24 16 -19 27
35 83 26 157 -35 275 -28 54 -44 75 -71 88 -19 9 -63 30 -98 47 -34 17 -71 31
-81 31 -11 0 -41 15 -69 34 -51 34 -115 51 -155 41 -12 -4 -36 1 -52 9 -41 21
-128 19 -195 -4z m176 -15 c45 -19 70 -73 55 -118 -16 -46 -13 -73 14 -127 31
-60 48 -135 40 -172 -5 -22 -15 -30 -44 -38 -21 -5 -54 -8 -72 -5 l-34 5 30
-14 c17 -9 46 -16 65 -16 l35 -2 -30 -13 c-23 -10 -45 -10 -91 -3 l-60 10 4
83 c4 81 3 86 -32 148 -30 55 -36 75 -36 125 0 45 -5 66 -21 86 -26 33 -19 41
41 54 66 14 96 14 136 -3z m187 -37 c39 -19 57 -50 57 -94 0 -14 11 -44 24
-67 13 -23 40 -93 61 -155 41 -124 41 -169 2 -197 -30 -21 -47 -19 -111 14
-30 16 -65 31 -78 33 -17 2 -22 8 -19 23 2 11 4 54 5 95 1 62 -4 85 -27 135
-25 52 -27 67 -22 120 4 34 2 72 -4 86 -5 15 -7 29 -4 32 9 9 77 -5 116 -25z
m-381 -28 c15 -19 18 -33 12 -81 -6 -53 -4 -63 26 -116 18 -31 36 -69 40 -84
12 -39 -7 -113 -35 -139 -28 -26 -95 -36 -164 -23 -41 8 -46 12 -53 43 -4 19
-15 59 -24 88 -8 29 -19 77 -24 108 -7 39 -18 66 -40 90 -16 19 -30 41 -30 49
0 16 52 50 118 76 65 26 148 21 174 -11z m539 -50 c14 -10 45 -23 67 -30 51
-13 106 -68 125 -124 48 -140 49 -164 6 -200 -23 -20 -42 -26 -77 -26 -44 -1
-46 -2 -28 -15 11 -8 34 -15 50 -15 27 -1 28 -2 13 -11 -11 -6 -38 -8 -68 -4
l-49 7 0 53 c0 36 -10 78 -30 128 -16 42 -30 81 -30 89 -1 7 -14 38 -30 68
-29 53 -37 90 -23 103 9 10 43 -1 74 -23z m-828 -62 c20 -23 37 -51 37 -62 0
-11 12 -68 26 -128 14 -60 23 -119 20 -131 -3 -12 -22 -35 -42 -51 -29 -23
-48 -30 -91 -31 -29 -1 -56 2 -59 6 -3 5 5 9 18 9 13 0 30 5 38 10 11 7 4 10
-27 10 -38 0 -44 3 -58 33 -8 17 -26 47 -40 66 -14 20 -25 48 -25 66 0 18 -9
44 -20 58 -11 14 -20 30 -20 36 0 12 180 151 196 151 6 0 27 -19 47 -42z
m-234 -154 c14 -17 21 -41 21 -68 0 -28 8 -54 26 -80 35 -52 43 -119 18 -148
-23 -25 -74 -48 -108 -48 -13 0 -37 -11 -53 -24 -61 -51 -107 -76 -139 -76
-44 0 -84 16 -84 34 0 22 -28 34 -88 39 -29 2 -55 7 -58 10 -3 3 18 30 48 60
29 30 62 70 73 88 11 19 50 54 86 79 36 25 95 71 130 102 71 65 97 71 128 32z
m609 -206 c7 -7 12 -27 12 -44 0 -30 -3 -33 -32 -36 -27 -2 -34 -8 -36 -30 -2
-18 4 -31 20 -42 34 -24 42 -19 19 10 -24 30 -20 44 13 44 32 0 54 -21 58 -55
3 -27 7 -30 39 -33 27 -2 44 3 68 23 34 29 43 75 15 75 -10 0 -14 -6 -11 -15
7 -15 -45 -65 -68 -65 -23 0 -28 20 -9 41 16 18 16 19 -3 19 -27 0 -51 29 -59
69 l-7 33 79 -7 c59 -5 85 -13 103 -29 l25 -21 -17 27 c-27 43 -20 45 20 7
l36 -34 -22 33 c-17 25 -19 32 -8 32 9 0 25 -12 36 -27 11 -16 21 -22 21 -15
0 28 110 -47 110 -75 0 -8 5 -11 10 -8 6 3 7 17 4 30 -5 19 0 27 27 40 28 15
40 16 85 6 44 -10 58 -10 83 3 16 9 33 20 36 26 10 15 55 12 61 -5 4 -9 -4
-23 -17 -34 -23 -19 -23 -20 -5 -39 20 -23 14 -42 -14 -42 -11 0 -20 10 -24
25 -10 38 -26 30 -26 -12 0 -20 -7 -44 -16 -54 -22 -25 -1 -32 28 -9 27 21 48
12 48 -22 0 -26 -40 -59 -63 -52 -16 5 -18 2 -12 -18 4 -12 8 -27 9 -33 1 -12
-39 -12 -71 -1 -20 6 -23 4 -23 -17 0 -32 -9 -38 -32 -26 -19 11 -19 11 3 35
27 29 19 42 -13 20 -12 -9 -30 -16 -40 -16 -22 0 -24 -16 -3 -24 20 -7 19 -45
-1 -53 -9 -3 -31 1 -50 10 l-34 17 0 -36 0 -37 -45 5 c-42 5 -45 4 -45 -18 0
-23 -9 -29 -40 -24 -30 4 -35 20 -12 36 27 19 28 77 1 82 -12 2 -15 -4 -11
-27 3 -26 0 -31 -22 -37 -14 -3 -37 -3 -51 0 -36 9 -32 -13 5 -27 21 -8 30
-18 30 -34 0 -31 -24 -29 -48 4 -17 23 -22 25 -35 14 -18 -15 -59 -11 -64 6
-2 6 6 14 19 18 32 10 68 45 68 66 0 22 -37 49 -65 49 -20 -1 -20 -1 0 -15 46
-33 47 -36 28 -57 -14 -16 -27 -19 -61 -15 -32 3 -41 2 -33 -6 14 -14 14 -44
1 -52 -16 -10 -49 14 -56 40 -8 33 -22 32 -26 -2 -5 -48 -78 -40 -78 9 0 18
-3 17 -45 -7 -48 -28 -70 -25 -61 8 6 25 -10 47 -33 47 -10 0 -38 -14 -64 -30
-26 -17 -52 -30 -58 -30 -6 0 -22 -9 -36 -20 -33 -26 -49 -25 -56 2 l-6 22
-24 -22 c-30 -29 -45 -28 -57 3 -11 30 -26 32 -35 5 -3 -11 -12 -20 -20 -20
-13 0 -58 48 -68 72 -4 9 -12 6 -25 -12 -17 -20 -23 -22 -36 -11 -8 7 -19 31
-24 54 l-8 42 -18 -33 c-14 -27 -20 -31 -32 -21 -8 6 -14 23 -14 36 0 20 -4
24 -17 18 -27 -12 -56 -11 -60 1 -2 5 10 24 25 42 26 28 32 31 58 23 42 -13
114 -20 114 -11 0 4 14 13 30 20 24 10 33 10 48 -1 14 -11 15 -11 5 1 -20 22
-15 32 9 24 20 -6 21 -5 9 9 -14 18 -1 26 101 62 26 9 59 30 73 46 l25 30 46
-31 c25 -18 48 -30 50 -27 3 3 -9 15 -26 27 -42 30 -30 38 16 10 22 -12 32
-15 25 -7 -15 19 1 31 30 22 13 -5 19 -3 15 3 -6 10 67 82 84 82 5 0 25 -13
43 -30 39 -34 59 -40 32 -10 -17 19 -17 20 0 20 10 0 27 -7 37 -17 16 -14 18
-15 18 0 0 10 17 21 48 30 61 19 56 19 70 5z m-1063 -115 c-10 -16 -23 -36
-30 -45 -11 -17 -60 -57 -200 -165 -72 -55 -209 -123 -244 -122 l-26 1 25 7
c44 14 84 38 121 74 20 19 58 46 85 60 27 14 60 38 74 54 l25 28 -25 -21 c-14
-12 -53 -36 -88 -54 -35 -19 -71 -43 -80 -55 -20 -25 -70 -60 -77 -53 -13 13
161 146 290 221 38 22 86 53 105 69 46 38 69 38 45 1z m49 -74 c22 -6 47 -13
54 -15 27 -8 -19 -51 -105 -99 -49 -27 -116 -76 -151 -108 -35 -32 -66 -57
-68 -54 -11 10 11 38 72 91 35 32 64 62 64 67 0 19 -130 -105 -161 -153 -30
-47 -128 -138 -148 -138 -28 0 -5 40 55 95 90 82 234 222 209 204 -11 -9 -51
-42 -90 -74 -64 -54 -61 -50 35 48 58 59 123 116 145 127 47 24 38 23 89 9z
m686 -239 c-10 -19 -59 -50 -80 -50 -5 0 -10 6 -10 14 0 21 48 56 77 56 21 0
22 -3 13 -20z"/>
<path d="M1690 950 c-16 -10 -18 -10 60 -28 l45 -10 -28 24 c-30 25 -52 30
-77 14z"/>
<path d="M1900 901 c0 -9 81 -63 86 -58 2 2 -3 13 -11 24 -15 21 -75 49 -75
34z"/>
<path d="M1995 870 c20 -23 29 -21 19 4 -3 9 -13 16 -22 16 -13 0 -12 -3 3
-20z"/>
<path d="M1890 741 c0 -5 15 -12 33 -15 18 -3 50 -15 71 -27 44 -23 62 -16 28
12 -37 29 -132 51 -132 30z"/>
<path d="M1393 915 c-25 -18 -11 -28 20 -14 17 8 30 8 43 1 12 -6 27 -7 43 0
14 5 36 6 49 3 17 -4 23 -2 20 7 -6 18 -151 20 -175 3z"/>
<path d="M1440 730 c0 -5 18 -10 39 -10 22 0 43 5 46 10 4 6 -12 10 -39 10
-25 0 -46 -4 -46 -10z"/>
<path d="M2135 880 c-4 -6 8 -10 30 -10 20 0 45 -5 57 -11 27 -14 38 -1 14 17
-23 16 -92 19 -101 4z"/>
<path d="M1185 790 c-3 -5 1 -10 10 -10 9 0 13 5 10 10 -3 6 -8 10 -10 10 -2
0 -7 -4 -10 -10z"/>
<path d="M1110 773 c0 -18 25 -33 57 -33 40 0 44 16 6 22 -16 3 -36 9 -45 13
-10 4 -18 3 -18 -2z"/>
<path d="M945 725 c-14 -13 -25 -30 -25 -38 0 -15 -41 -57 -56 -57 -15 0 -54
-44 -54 -60 0 -9 7 -6 20 8 12 12 36 28 55 36 22 9 41 28 54 53 11 22 27 45
35 52 9 8 16 17 16 22 0 16 -21 9 -45 -16z"/>
<path d="M1008 589 c-42 -22 -47 -29 -19 -29 20 0 69 35 61 43 -3 3 -22 -4
-42 -14z"/>
<path d="M760 570 c0 -5 5 -10 10 -10 6 0 10 5 10 10 0 6 -4 10 -10 10 -5 0
-10 -4 -10 -10z"/>
<path d="M808 488 c-37 -10 -52 -28 -23 -28 20 0 65 22 65 32 0 4 -1 8 -2 7
-2 -1 -20 -6 -40 -11z"/>
<path d="M2087 593 c-4 -3 3 -17 13 -31 11 -13 20 -33 20 -43 0 -23 18 -25 27
-3 11 30 -40 97 -60 77z"/>
<path d="M1366 508 c-22 -31 -20 -54 6 -72 29 -20 36 -12 13 15 -25 27 -10 53
34 57 38 4 31 22 -9 22 -18 0 -34 -8 -44 -22z"/>
<path d="M1190 483 c0 -5 5 -14 12 -21 20 -20 -6 -62 -40 -62 -23 0 -30 6 -37
33 -8 26 -16 33 -42 35 -37 4 -46 -15 -10 -20 31 -4 36 -57 7 -83 -25 -23 -26
-35 0 -28 10 3 35 -4 53 -16 75 -46 158 -2 98 53 -16 15 -17 22 -8 47 8 21 8
34 1 46 -12 19 -34 29 -34 16z m20 -121 c46 -37 -12 -59 -59 -23 -13 10 -21
23 -17 30 11 17 51 13 76 -7z"/>
<path d="M2014 434 c8 -21 -20 -54 -45 -54 -10 0 -21 -4 -24 -10 -3 -5 3 -10
14 -10 30 0 70 21 76 40 7 21 -3 50 -17 50 -6 0 -7 -7 -4 -16z"/>
</g>
</svg>
