<?xml version="1.0" standalone="no"?>
<!DOCTYPE svg PUBLIC "-//W3C//DTD SVG 20010904//EN"
 "http://www.w3.org/TR/2001/REC-SVG-20010904/DTD/svg10.dtd">
<svg version="1.0" xmlns="http://www.w3.org/2000/svg"
 width="229.000000pt" height="122.000000pt" viewBox="0 0 229.000000 122.000000"
 preserveAspectRatio="xMidYMid meet">

<g transform="translate(0.000000,122.000000) scale(0.100000,-0.100000)"
fill="#000000" stroke="none">
<path d="M2055 1149 c-111 -59 -121 -61 -378 -64 -227 -2 -239 -3 -260 -23
-33 -31 -115 -44 -232 -36 -70 5 -109 12 -131 25 -41 25 -168 34 -269 20 -60
-9 -102 -9 -170 0 -76 10 -107 9 -200 -6 -204 -32 -353 -95 -381 -160 -8 -19
-14 -65 -14 -103 0 -87 13 -105 109 -152 64 -30 71 -37 66 -57 -4 -16 1 -28
14 -40 16 -13 18 -21 10 -36 -6 -10 -8 -25 -5 -34 3 -8 -1 -24 -9 -36 -20 -28
-20 -83 0 -91 10 -3 15 -19 15 -44 0 -37 28 -82 50 -82 5 0 10 -17 12 -37 3
-34 6 -38 34 -41 22 -2 35 -11 43 -29 10 -22 16 -24 47 -18 26 4 41 2 53 -9
10 -9 28 -16 42 -16 94 -1 135 2 150 10 12 7 21 5 29 -5 16 -19 33 -19 70 0
26 14 34 13 72 -2 48 -18 85 -21 337 -27 96 -2 189 -7 207 -11 28 -5 36 -2 50
20 12 18 22 24 35 20 11 -4 32 0 47 7 23 12 33 12 57 2 46 -20 102 -17 125 6
18 18 28 20 84 14 81 -8 110 -1 124 31 6 14 20 25 30 25 28 0 52 32 52 68 0
20 5 32 13 32 22 0 57 44 57 71 0 13 -7 35 -16 47 -14 20 -14 23 3 28 74 23
87 50 55 114 -11 22 -16 42 -12 45 4 3 18 30 30 61 18 43 21 61 13 74 -8 12
-8 27 0 52 9 29 19 38 49 47 39 12 46 23 47 86 0 22 12 62 26 89 47 92 27 156
-57 181 -65 19 -55 20 -123 -16z m156 -25 c47 -42 -1 -142 -88 -184 -112 -54
-113 -54 -125 -42 -7 7 -22 12 -34 12 -35 0 -129 46 -155 77 -13 15 -36 38
-51 49 l-28 22 108 6 c59 3 125 8 147 12 36 5 45 2 83 -31 23 -20 42 -34 42
-30 0 18 -24 46 -50 60 -17 9 -30 19 -30 23 0 4 17 17 38 30 44 27 111 25 143
-4z m-549 -82 c62 -7 70 -11 120 -58 29 -28 71 -57 93 -64 22 -7 43 -15 47
-19 12 -11 -30 -71 -50 -71 -24 0 -42 -19 -42 -44 0 -12 -29 -48 -69 -86 -38
-37 -76 -82 -86 -101 -44 -86 -120 -129 -232 -129 -30 0 -70 -7 -89 -15 l-36
-15 7 38 c12 66 36 97 79 100 21 2 55 14 75 27 20 12 53 28 74 35 20 6 37 16
37 22 0 18 -79 1 -118 -25 -20 -14 -52 -27 -70 -31 -28 -5 -32 -3 -28 12 14
45 26 156 26 236 l0 88 28 -30 c34 -36 68 -47 118 -38 32 7 39 3 70 -29 19
-20 34 -41 34 -46 0 -5 5 -9 10 -9 18 0 11 15 -26 58 -35 41 -37 42 -101 42
-63 0 -67 2 -99 37 -38 42 -45 85 -16 116 18 20 47 20 244 -1z m-1010 -13 c51
-13 90 -64 118 -155 20 -65 29 -80 68 -112 142 -115 146 -122 118 -218 -8 -27
-20 -68 -26 -91 -10 -39 -14 -43 -43 -43 -34 0 -67 17 -140 73 -56 43 -117 64
-221 77 -80 10 -106 21 -106 46 0 17 -23 22 -122 27 -61 3 -90 11 -151 40 -98
46 -112 66 -102 153 8 74 35 114 77 114 35 0 85 -35 120 -85 41 -58 50 -49 12
12 -19 30 -45 55 -73 70 l-44 23 34 14 c145 60 361 85 481 55z m243 1 c3 -5
11 -10 16 -10 6 0 7 5 3 11 -5 8 11 10 55 7 49 -3 67 -10 86 -29 l24 -24 -16
-72 c-14 -63 -18 -71 -31 -60 -13 10 -14 9 -3 -12 11 -19 10 -31 -3 -65 -8
-22 -20 -53 -25 -68 l-10 -28 -74 53 c-41 28 -82 57 -91 62 -9 6 -29 44 -45
87 -15 42 -38 90 -50 106 -11 17 -21 32 -21 35 0 15 176 22 185 7z m315 -101
c0 -5 -14 -18 -32 -29 -44 -26 -57 -6 -21 32 20 21 30 25 40 17 7 -6 13 -15
13 -20z m54 -23 c-7 -19 -34 -29 -34 -12 0 7 3 16 7 19 12 13 32 7 27 -7z
m916 7 c0 -3 -7 -15 -17 -25 -15 -17 -15 -18 5 -18 44 0 19 -45 -28 -52 -16
-2 -30 -14 -39 -33 -17 -36 -30 -47 -53 -41 -14 3 -18 -2 -18 -27 0 -18 -9
-40 -22 -54 -26 -28 -20 -38 15 -22 21 9 30 9 42 -1 14 -12 13 -15 -6 -36 -17
-18 -26 -21 -40 -14 -15 9 -18 6 -17 -20 1 -19 -8 -40 -22 -55 l-23 -25 25 0
c13 0 28 -3 31 -6 9 -9 -10 -44 -47 -83 l-31 -34 28 7 c32 8 57 -7 57 -32 0
-26 -31 -52 -62 -52 -26 0 -28 -3 -28 -40 0 -35 -3 -40 -27 -46 -16 -3 -32 -7
-38 -8 -5 -1 -10 -13 -10 -27 0 -22 -3 -24 -55 -24 -30 0 -69 4 -86 8 -26 7
-32 5 -42 -17 -14 -32 -42 -40 -92 -26 -50 13 -51 24 -2 36 30 7 38 14 40 37
l3 27 -25 -25 c-14 -14 -35 -25 -47 -25 -11 0 -30 -11 -41 -25 -11 -14 -30
-25 -44 -25 -28 0 -30 7 -7 32 19 21 6 23 -32 6 -21 -9 -31 -9 -46 0 -15 10
-19 9 -19 -3 0 -8 9 -19 21 -25 23 -13 23 -55 0 -55 -41 0 -79 131 -73 248 l4
78 39 19 c21 11 41 20 45 20 7 0 1 -33 -11 -65 -8 -20 -8 -20 13 -1 11 10 22
28 24 40 3 18 12 22 69 28 37 3 76 11 87 17 28 15 27 15 51 -25 27 -45 38 -39
15 9 -16 34 -16 36 5 66 26 35 36 38 50 14 14 -24 14 -10 -1 22 -15 33 -4 43
24 19 23 -19 23 -19 6 2 -10 11 -18 26 -18 32 0 15 33 32 62 32 l23 1 -23 12
c-22 13 -22 14 -4 30 16 15 20 15 40 1 23 -16 30 -6 11 13 -7 7 -9 19 -5 29 4
9 10 14 14 10 3 -4 11 14 17 41 14 69 41 71 50 4 4 -27 12 -51 18 -54 23 -9
58 13 72 45 17 43 7 59 -12 19 -14 -28 -48 -50 -60 -37 -3 3 4 21 16 41 25 43
27 52 6 35 -9 -7 -18 -10 -21 -7 -7 7 21 60 40 77 14 11 18 8 27 -19 l11 -33
32 31 c40 39 59 41 45 5 -5 -15 -7 -29 -5 -31 10 -10 24 8 29 36 5 23 14 32
39 40 42 12 48 12 48 4z m-84 -214 c3 -6 0 -17 -7 -25 -18 -17 -44 -2 -36 20
7 18 33 21 43 5z m-1787 -126 l20 -28 -6 25 c-6 25 -6 25 15 6 19 -17 22 -17
22 -3 0 25 10 21 39 -14 27 -31 76 -48 139 -49 26 0 36 -7 52 -32 20 -33 24
-31 21 7 -2 19 0 18 19 -4 11 -13 20 -29 20 -37 0 -8 4 -14 10 -14 6 0 6 9 0
26 -12 31 -12 34 0 34 5 0 19 -17 30 -37 19 -36 20 -36 13 -8 l-6 30 41 -37
c22 -20 55 -44 71 -53 17 -8 32 -23 32 -33 1 -16 2 -16 6 1 5 18 20 21 47 11
11 -4 16 -20 16 -53 1 -25 7 -80 14 -121 8 -41 11 -78 7 -82 -3 -4 -18 -9 -31
-10 -22 -3 -25 0 -22 25 5 38 -23 67 -62 67 l-31 0 31 -19 c38 -23 48 -37 34
-46 -20 -12 -60 5 -72 30 -7 16 -19 25 -34 25 -23 0 -54 24 -54 41 0 5 -4 9
-10 9 -14 0 -12 -36 3 -48 6 -5 23 -13 37 -17 44 -13 53 -25 34 -46 -23 -25
-60 -25 -67 1 -7 26 -29 26 -52 0 -22 -24 -41 -26 -53 -4 -7 13 -13 14 -30 5
-26 -14 -69 -14 -77 -1 -4 6 7 10 24 10 17 0 31 5 31 10 0 6 -8 10 -17 10 -10
0 -33 9 -51 20 -41 25 -42 25 -42 -5 0 -34 -32 -33 -58 2 -17 23 -22 25 -35
14 -22 -18 -40 -4 -32 26 4 19 -1 31 -25 53 -37 35 -42 75 -7 64 22 -7 22 -6
3 14 -15 18 -16 24 -6 37 15 18 7 19 -21 5 -43 -23 -25 64 18 89 16 10 16 11
-4 17 -30 8 -29 20 5 38 l27 14 -27 11 c-49 19 -48 51 2 51 19 0 35 -9 49 -27z
m1757 -57 c8 -32 2 -58 -13 -64 -8 -2 -13 6 -13 20 0 13 -5 29 -11 35 -6 6 -8
16 -5 22 12 19 35 12 42 -13z m-796 -127 c0 -27 -2 -49 -5 -49 -3 0 -19 9 -34
21 -34 25 -67 19 -83 -17 -11 -24 -41 -40 -57 -30 -5 3 -30 7 -55 8 -39 1 -51
-3 -76 -27 l-30 -29 0 28 c0 17 11 39 29 57 24 24 38 29 75 29 41 0 47 3 62
32 17 32 17 32 27 11 14 -31 32 -35 60 -12 29 22 69 39 80 32 4 -2 7 -26 7
-54z m-290 -125 c0 -13 -21 -44 -30 -44 -14 0 -12 24 2 38 13 13 28 16 28 6z"/>
<path d="M1786 915 c4 -8 16 -15 28 -15 21 1 21 1 2 15 -25 19 -37 19 -30 0z"/>
<path d="M1697 713 c-10 -9 -9 -23 2 -23 5 0 11 7 15 15 5 15 -5 20 -17 8z"/>
<path d="M1630 690 c-6 -11 -8 -25 -4 -32 6 -10 33 25 34 45 0 15 -20 6 -30
-13z"/>
<path d="M422 940 c9 -14 19 -41 23 -60 14 -67 32 -88 107 -125 40 -20 92 -52
116 -72 52 -42 66 -38 21 7 -38 37 -89 71 -139 90 -53 20 -78 48 -95 105 -8
29 -22 59 -32 66 -15 13 -15 12 -1 -11z"/>
<path d="M158 719 c7 -8 41 -15 85 -17 55 -3 77 -9 94 -24 18 -17 29 -19 60
-13 21 4 50 9 64 12 20 4 37 -5 73 -36 39 -34 54 -41 89 -41 l42 1 -39 14
c-22 8 -56 32 -77 54 -31 35 -43 41 -76 41 -22 0 -54 -5 -71 -11 -24 -8 -35
-7 -55 5 -17 12 -43 16 -93 14 -38 -2 -78 1 -89 6 -17 7 -18 7 -7 -5z"/>
<path d="M803 545 c16 -14 33 -23 38 -19 15 9 -21 44 -45 44 -19 -1 -19 -2 7
-25z"/>
<path d="M860 558 c0 -14 39 -43 47 -34 7 7 -6 25 -28 36 -14 8 -19 7 -19 -2z"/>
<path d="M1786 480 c15 -25 16 -35 6 -63 -21 -57 -16 -77 17 -77 40 0 83 51
79 94 -3 28 -6 31 -34 30 -25 -1 -34 4 -43 22 -6 13 -18 24 -26 24 -14 0 -14
-3 1 -30z m76 -55 c-4 -21 -40 -65 -54 -65 -13 0 -9 30 9 61 19 33 50 35 45 4z"/>
<path d="M1525 361 c-6 -21 -35 -30 -35 -11 0 6 -4 10 -10 10 -5 0 -10 -8 -10
-19 0 -10 -10 -30 -21 -45 -27 -35 -16 -46 16 -16 13 12 34 28 46 34 31 16 46
43 32 57 -8 8 -13 6 -18 -10z"/>
<path d="M1846 235 c-11 -8 -30 -15 -43 -15 -13 0 -23 -4 -23 -10 0 -16 53
-12 78 6 21 15 30 34 15 34 -5 0 -17 -7 -27 -15z"/>
<path d="M498 419 c16 -17 16 -49 -1 -49 -7 0 -23 7 -35 16 -30 21 -41 10 -17
-16 12 -13 25 -18 41 -14 17 4 33 -2 55 -20 38 -32 73 -31 77 2 4 25 -13 30
-22 7 -5 -14 -9 -14 -36 0 -38 19 -39 42 -2 47 l27 4 -25 11 c-14 6 -36 14
-50 18 -20 6 -23 5 -12 -6z"/>
<path d="M310 342 c0 -12 19 -26 26 -19 2 2 -2 10 -11 17 -9 8 -15 8 -15 2z"/>
<path d="M352 334 c10 -10 20 -15 24 -12 3 4 -5 12 -18 18 -22 12 -22 12 -6
-6z"/>
<path d="M401 264 c-1 -28 32 -56 60 -52 35 5 36 28 1 28 -19 0 -35 8 -45 23
-16 22 -16 22 -16 1z"/>
</g>
</svg>
