<?xml version="1.0" standalone="no"?>
<!DOCTYPE svg PUBLIC "-//W3C//DTD SVG 20010904//EN"
 "http://www.w3.org/TR/2001/REC-SVG-20010904/DTD/svg10.dtd">
<svg version="1.0" xmlns="http://www.w3.org/2000/svg"
 width="139.000000pt" height="155.000000pt" viewBox="0 0 139.000000 155.000000"
 preserveAspectRatio="xMidYMid meet">

<g transform="translate(0.000000,155.000000) scale(0.100000,-0.100000)"
fill="#000000" stroke="none">
<path d="M803 1480 c-12 -5 -27 -25 -34 -44 -11 -31 -17 -36 -45 -36 -24 0
-39 -8 -58 -30 -24 -30 -26 -30 -50 -15 -40 27 -98 0 -108 -50 -4 -21 -13 -22
-74 -9 -24 4 -37 0 -61 -20 -17 -14 -40 -26 -52 -26 -12 0 -28 -8 -36 -17 -35
-41 -54 -60 -98 -96 -37 -30 -48 -46 -53 -77 -4 -22 -13 -45 -20 -51 -8 -6
-14 -22 -14 -34 0 -14 -13 -33 -36 -50 -33 -25 -35 -30 -29 -64 4 -20 7 -169
7 -333 l0 -296 55 -67 c46 -56 67 -73 132 -103 131 -60 121 -61 570 73 46 14
94 25 107 25 14 0 41 7 60 15 39 16 283 222 308 259 32 49 45 128 45 266 -1
74 4 189 10 255 6 66 12 156 13 199 1 93 -12 111 -74 102 -29 -5 -38 -3 -38 8
0 8 -10 22 -21 30 -12 8 -27 25 -33 38 -8 17 -22 24 -49 26 -24 2 -37 8 -37
17 0 21 -40 55 -65 55 -11 0 -30 -7 -42 -15 -20 -14 -24 -13 -60 21 -58 55
-76 62 -120 44z m84 -32 c10 -8 5 -17 -19 -40 -26 -24 -37 -28 -65 -23 l-32 6
16 34 c21 44 62 54 100 23z m177 -54 c17 -16 22 -54 8 -54 -5 0 -17 9 -27 20
-10 11 -26 22 -36 25 -11 4 -17 11 -14 16 10 14 52 10 69 -7z m-120 -10 c10
-27 7 -46 -11 -60 -28 -21 -51 -16 -67 14 -13 26 -13 31 2 45 21 22 68 22 76
1z m-194 -13 c0 -5 -7 -11 -15 -15 -8 -3 -20 -17 -27 -31 -13 -28 -36 -33 -45
-9 -8 21 35 64 64 64 13 0 23 -4 23 -9z m84 -22 c14 -11 26 -29 26 -39 0 -24
-69 -65 -83 -51 -6 6 -24 11 -39 11 -20 0 -28 5 -28 18 1 30 53 81 86 82 6 0
23 -9 38 -21z m197 0 c30 -30 22 -64 -16 -64 -23 0 -32 6 -39 26 -19 54 15 78
55 38z m-415 -13 c26 -20 9 -36 -45 -43 -33 -5 -41 -3 -41 10 0 16 36 47 55
47 6 0 20 -6 31 -14z m546 -22 c10 -21 9 -31 -3 -52 -28 -51 -78 -31 -79 30 0
49 62 66 82 22z m-181 -45 c10 -27 10 -36 -2 -58 -20 -36 -42 -33 -50 7 -4 18
-14 41 -23 51 -24 26 -20 31 23 31 34 0 40 -4 52 -31z m-320 11 c22 -13 25
-39 5 -65 -12 -17 -17 -18 -55 -5 -52 17 -54 41 -6 68 25 14 32 14 56 2z
m-210 -10 c21 -12 26 -30 7 -30 -7 0 -26 -7 -42 -15 -46 -24 -67 9 -24 39 26
19 33 19 59 6z m765 -14 c7 -29 -1 -46 -21 -46 -21 0 -26 16 -14 44 15 33 27
33 35 2z m-668 -13 c-4 -32 -17 -38 -43 -19 -16 12 -17 16 -6 30 7 9 22 16 33
16 15 0 19 -6 16 -27z m524 10 c22 -20 24 -76 3 -93 -37 -31 -96 58 -64 96 15
19 38 18 61 -3z m-296 -14 c3 -5 0 -26 -6 -48 l-10 -40 -25 25 c-13 13 -31 24
-40 24 -18 0 -19 11 -2 32 20 26 68 30 83 7z m116 4 c42 -37 3 -113 -59 -115
-41 -1 -53 8 -52 40 1 40 12 63 40 78 32 18 49 17 71 -3z m428 -24 c17 -31 5
-50 -29 -47 -18 1 -38 -5 -51 -17 -18 -16 -23 -17 -30 -5 -15 24 -12 32 23 61
38 34 72 37 87 8z m-980 1 c12 -7 12 -12 -4 -29 -10 -11 -21 -35 -25 -53 l-7
-33 -17 31 c-15 29 -15 33 3 62 21 34 27 37 50 22z m151 -10 c22 -12 23 -21 9
-71 -9 -31 -16 -38 -46 -44 -45 -8 -64 7 -64 50 0 24 7 39 26 54 30 23 46 26
75 11z m688 -31 c16 -29 8 -77 -14 -85 -8 -4 -25 6 -39 23 -29 32 -29 33 -16
68 13 34 48 31 69 -6z m-573 -4 c31 -48 -13 -105 -73 -93 -27 5 -29 52 -3 88
26 37 54 38 76 5z m-236 -11 c0 -14 5 -34 11 -46 14 -26 8 -31 -25 -19 -20 8
-26 17 -26 39 0 27 15 52 32 52 4 0 8 -12 8 -26z m350 -4 c26 -26 25 -52 -4
-79 -32 -30 -93 -27 -88 4 2 11 6 37 9 58 5 33 8 37 34 37 16 0 38 -9 49 -20z
m294 -2 c20 -28 20 -47 1 -72 -14 -18 -15 -18 -44 13 -16 17 -34 31 -40 31
-22 0 -10 29 17 38 41 15 49 14 66 -10z m-768 -15 c-10 -10 -19 5 -10 18 6 11
8 11 12 0 2 -7 1 -15 -2 -18z m1068 -9 c20 -19 20 -48 1 -64 -12 -10 -16 -8
-24 13 -5 14 -15 28 -20 32 -6 3 -11 13 -11 21 0 19 35 18 54 -2z m-1090 -31
c-7 -28 -14 -45 -33 -72 -8 -12 -12 -12 -25 -2 -22 19 -20 35 10 70 33 40 57
41 48 4z m61 8 c12 -39 -19 -68 -43 -38 -13 16 3 57 22 57 8 0 17 -8 21 -19z
m663 -7 c23 -16 29 -57 13 -83 -9 -14 -17 -12 -56 11 -11 6 -27 14 -35 18 -21
10 -24 35 -5 54 21 20 54 21 83 0z m168 -9 c22 -34 15 -57 -26 -78 -34 -17
-35 -17 -52 4 -22 26 -23 43 -2 74 21 33 59 33 80 0z m143 -2 c14 -17 19 -33
15 -47 -9 -30 -12 -31 -31 -14 -22 18 -63 30 -63 17 0 -5 5 -9 12 -9 20 0 48
-32 48 -55 0 -26 -35 -65 -59 -65 -9 0 -29 18 -43 40 l-26 39 28 25 c16 13 26
27 23 30 -8 8 47 66 63 66 7 0 22 -12 33 -27z m-441 11 c34 -10 28 -47 -12
-78 -39 -29 -46 -31 -46 -14 0 6 -7 19 -16 29 -15 16 -14 20 3 43 19 26 32 30
71 20z m-439 -30 c2 -2 1 -10 -3 -19 -5 -13 -13 -15 -38 -10 -45 10 -51 15
-37 31 8 10 22 13 43 8 17 -3 33 -8 35 -10z m121 -13 c18 -35 11 -59 -24 -80
-40 -25 -50 -26 -70 -5 -20 20 -20 68 0 88 22 23 81 21 94 -3z m-251 -49 c-5
-15 -12 -33 -14 -39 -7 -22 -35 -2 -35 25 0 34 28 66 46 51 9 -8 10 -18 3 -37z
m351 39 c0 -6 -4 -13 -10 -16 -5 -3 -10 -17 -10 -31 0 -19 -5 -24 -24 -24 -21
0 -24 6 -28 40 l-4 40 38 0 c21 0 38 -4 38 -9z m108 -12 c30 -10 34 -16 46
-70 7 -31 -7 -46 -51 -55 -24 -5 -36 0 -66 29 -44 41 -50 82 -14 97 30 12 49
12 85 -1z m-370 -16 c29 -7 46 -47 32 -73 -17 -31 -43 -40 -84 -29 -30 8 -36
14 -36 37 0 15 7 38 16 50 16 23 32 26 72 15z m561 -10 c31 -25 40 -92 16
-109 -28 -21 -76 -17 -102 8 -64 60 18 156 86 101z m121 -2 c13 -25 13 -67 0
-91 -9 -16 -14 -18 -35 -8 -35 16 -39 40 -13 81 27 42 33 44 48 18z m-820 -41
c44 -44 48 -59 22 -83 -20 -19 -33 -12 -49 25 -7 14 -21 29 -32 33 -13 4 -21
15 -21 29 0 49 28 48 80 -4z m909 -11 c31 -29 25 -70 -13 -88 -21 -10 -34 -11
-52 -2 -23 10 -23 12 -10 43 8 18 17 41 20 51 7 23 27 22 55 -4z m-605 -4 c-6
-16 -34 -21 -34 -7 0 13 11 22 26 22 8 0 11 -6 8 -15z m772 -19 c-3 -14 -15
-30 -26 -36 -25 -14 -25 -4 1 39 22 37 35 36 25 -3z m-664 7 c21 -18 24 -68 6
-80 -7 -4 -37 -8 -65 -9 -49 0 -53 1 -53 23 0 13 7 37 15 53 12 24 22 30 47
30 17 0 40 -7 50 -17z m-168 -5 c27 -12 31 -19 42 -80 7 -45 2 -47 -39 -12
-20 17 -39 24 -54 21 -36 -7 -46 21 -20 55 25 30 35 33 71 16z m-296 -30 c17
-17 14 -39 -8 -66 -15 -18 -25 -22 -42 -17 -51 16 -61 42 -28 75 22 22 60 26
78 8z m654 -13 c35 -30 28 -49 -24 -76 -44 -23 -51 -21 -68 21 -12 28 -11 33
10 55 29 31 47 31 82 0z m192 -19 c20 -28 21 -29 2 -40 -11 -6 -41 -30 -68
-53 -27 -24 -51 -43 -53 -43 -2 0 -13 21 -25 47 -19 43 -19 47 -4 65 10 10 28
18 41 18 12 0 31 9 41 19 23 26 40 22 66 -13z m-670 11 c11 -8 17 -23 14 -37
-2 -20 -11 -26 -40 -31 -41 -6 -58 4 -58 36 0 42 47 59 84 32z m360 -5 c-1 -7
-2 -21 -2 -32 -1 -12 -12 -22 -27 -26 -33 -8 -42 1 -23 23 8 10 18 26 21 36 7
20 33 18 31 -1z m-461 -56 c17 -52 -30 -102 -60 -63 -23 29 -23 48 2 73 30 30
45 28 58 -10z m982 -10 c-21 -32 -39 -34 -29 -3 10 33 26 49 37 38 5 -5 2 -19
-8 -35z m-761 2 c9 -12 16 -32 16 -45 0 -24 -24 -53 -44 -53 -18 0 -63 46 -69
70 -12 47 68 70 97 28z m151 8 c27 -20 24 -84 -5 -108 -25 -20 -47 -22 -84 -8
-35 13 -35 58 0 99 28 33 59 39 89 17z m-474 -29 c-1 -12 -15 -9 -19 4 -3 6 1
10 8 8 6 -3 11 -8 11 -12z m597 1 c17 -17 15 -58 -5 -80 -22 -25 -80 -24 -88
1 -6 21 11 72 28 83 18 12 52 9 65 -4z m-374 -40 c12 -47 -4 -68 -50 -68 -43
0 -69 35 -55 73 11 29 25 37 66 34 26 -2 31 -7 39 -39z m485 28 c7 -8 11 -29
9 -47 -3 -29 -8 -34 -38 -40 -19 -4 -38 -5 -42 -3 -11 7 -10 62 2 85 12 22 52
25 69 5z m398 -22 c-6 -34 -54 -111 -63 -101 -5 5 57 137 64 137 3 0 2 -16 -1
-36z m-1087 -86 c0 -15 -27 -8 -45 12 -10 12 -15 26 -11 37 6 15 10 13 31 -12
13 -17 24 -33 25 -37z m74 42 c17 -16 -4 -30 -29 -18 -36 16 -42 40 -7 32 15
-4 31 -10 36 -14z m1051 -27 c-8 -42 -29 -88 -46 -99 -8 -4 -9 3 -4 25 5 22 3
31 -6 31 -8 0 -5 9 8 23 11 12 23 30 26 40 12 34 30 19 22 -20z m-889 1 c-3
-9 -6 -27 -6 -40 0 -21 -4 -24 -39 -24 -24 0 -48 8 -62 20 l-24 19 47 1 c37 0
51 5 60 20 15 24 33 27 24 4z m116 -1 c34 -31 20 -65 -34 -78 -56 -14 -94 71
-38 86 40 11 52 10 72 -8z m153 -33 c-11 -18 -63 -28 -85 -17 -31 16 -27 31
10 38 17 4 34 9 37 13 8 8 44 -24 38 -34z m61 15 c-23 -17 -36 -19 -36 -6 0 5
8 12 18 14 32 9 37 6 18 -8z m245 -4 c-11 -20 -68 -48 -78 -37 -7 7 -9 6 37
34 43 27 54 28 41 3z m-91 0 c0 -11 -31 -24 -39 -16 -3 3 1 10 9 15 19 12 30
12 30 1z m408 -83 c-2 -6 -10 -14 -16 -16 -7 -2 -10 2 -6 12 7 18 28 22 22 4z
m-980 -16 c42 -6 41 -22 -1 -22 -22 0 -41 8 -53 22 -19 21 -19 21 1 13 11 -4
35 -10 53 -13z m-178 -3 c0 -6 8 -8 18 -5 12 4 31 -8 62 -39 24 -24 41 -47 38
-50 -3 -3 -34 10 -69 28 -44 23 -65 41 -67 56 -2 11 1 21 7 21 6 0 11 -5 11
-11z m1156 -74 c-23 -36 -41 -21 -19 16 11 18 21 25 27 19 5 -5 3 -19 -8 -35z
m-1094 -42 c20 -23 32 -63 20 -63 -10 0 -72 66 -72 75 0 13 39 3 52 -12z m-22
-74 c0 -5 -4 -9 -10 -9 -5 0 -10 7 -10 16 0 8 5 12 10 9 6 -3 10 -10 10 -16z
m-31 -55 c-6 -8 -9 -32 -7 -54 4 -42 0 -48 -20 -28 -15 15 -16 67 -1 105 10
27 11 27 25 9 10 -14 11 -23 3 -32z"/>
<path d="M780 1335 c0 -18 24 -30 40 -20 8 5 8 11 -1 21 -15 19 -39 18 -39 -1z"/>
<path d="M1112 1303 c4 -21 33 -25 33 -3 0 8 -8 16 -18 18 -14 3 -18 -1 -15
-15z"/>
<path d="M1030 1221 c0 -12 6 -21 16 -21 9 0 14 7 12 17 -5 25 -28 28 -28 4z"/>
<path d="M841 1226 c-9 -10 -8 -16 4 -26 19 -16 41 1 32 24 -8 20 -21 20 -36
2z"/>
<path d="M422 1178 c-7 -7 -12 -16 -12 -20 0 -12 28 -10 36 3 10 17 -10 31
-24 17z"/>
<path d="M554 1165 c-4 -9 -2 -21 4 -27 15 -15 44 -1 40 19 -4 23 -36 29 -44
8z m26 -15 c0 -5 -4 -10 -10 -10 -5 0 -10 5 -10 10 0 6 5 10 10 10 6 0 10 -4
10 -10z"/>
<path d="M1060 1081 c0 -22 29 -36 43 -22 15 15 0 41 -23 41 -13 0 -20 -7 -20
-19z m30 -11 c0 -5 -2 -10 -4 -10 -3 0 -8 5 -11 10 -3 6 -1 10 4 10 6 0 11 -4
11 -10z"/>
<path d="M1177 1013 c-11 -10 -8 -41 3 -48 19 -12 41 15 29 36 -10 20 -21 24
-32 12z m23 -23 c0 -5 -4 -10 -10 -10 -5 0 -10 5 -10 10 0 6 5 10 10 10 6 0
10 -4 10 -10z"/>
<path d="M675 1010 c-4 -7 -3 -16 3 -22 14 -14 45 -2 40 15 -6 16 -34 21 -43
7z m25 -10 c0 -5 -2 -10 -4 -10 -3 0 -8 5 -11 10 -3 6 -1 10 4 10 6 0 11 -4
11 -10z"/>
<path d="M303 1013 c-16 -6 -17 -25 -2 -40 14 -14 39 -6 39 12 0 17 -22 33
-37 28z m27 -23 c0 -5 -7 -10 -15 -10 -8 0 -15 5 -15 10 0 6 7 10 15 10 8 0
15 -4 15 -10z"/>
<path d="M847 1003 c-13 -13 -7 -21 13 -16 11 3 20 0 20 -6 0 -6 -8 -11 -17
-11 -15 0 -16 -2 -3 -10 19 -12 45 12 37 34 -6 16 -38 22 -50 9z"/>
<path d="M550 915 c0 -8 9 -15 20 -15 11 0 20 7 20 15 0 8 -9 15 -20 15 -11 0
-20 -7 -20 -15z"/>
<path d="M943 874 c-8 -21 13 -42 28 -27 13 13 5 43 -11 43 -6 0 -13 -7 -17
-16z"/>
<path d="M175 820 c-10 -16 16 -43 28 -31 11 11 2 41 -12 41 -5 0 -13 -5 -16
-10z"/>
<path d="M384 805 c-4 -10 -1 -21 7 -26 20 -12 34 -5 34 17 0 24 -33 31 -41 9z
m26 -15 c0 -5 -2 -10 -4 -10 -3 0 -8 5 -11 10 -3 6 -1 10 4 10 6 0 11 -4 11
-10z"/>
<path d="M540 802 c0 -11 7 -25 15 -32 21 -18 47 -5 43 22 -4 31 -58 40 -58
10z m40 -12 c0 -5 -4 -10 -10 -10 -5 0 -10 5 -10 10 0 6 5 10 10 10 6 0 10 -4
10 -10z"/>
<path d="M683 783 c9 -2 17 -11 17 -20 0 -10 -6 -13 -17 -8 -14 5 -15 3 -6 -6
15 -15 33 -3 33 22 0 13 -6 19 -22 18 -17 -1 -19 -2 -5 -6z"/>
<path d="M274 766 c-9 -24 12 -44 28 -28 10 10 8 16 -5 29 -15 15 -17 15 -23
-1z m26 -16 c0 -5 -4 -10 -10 -10 -5 0 -10 5 -10 10 0 6 5 10 10 10 6 0 10 -4
10 -10z"/>
</g>
</svg>
