<?xml version="1.0" standalone="no"?>
<!DOCTYPE svg PUBLIC "-//W3C//DTD SVG 20010904//EN"
 "http://www.w3.org/TR/2001/REC-SVG-20010904/DTD/svg10.dtd">
<svg version="1.0" xmlns="http://www.w3.org/2000/svg"
 width="268.000000pt" height="149.000000pt" viewBox="0 0 268.000000 149.000000"
 preserveAspectRatio="xMidYMid meet">

<g transform="translate(0.000000,149.000000) scale(0.100000,-0.100000)"
fill="#000000" stroke="none">
<path d="M1060 1446 c-8 -11 -18 -12 -36 -6 -26 10 -74 -3 -74 -20 0 -5 -15
-10 -34 -10 -39 0 -67 -29 -59 -59 4 -14 -11 -27 -60 -54 -80 -45 -157 -108
-203 -167 -19 -25 -75 -85 -123 -135 -101 -103 -123 -147 -104 -216 10 -40 10
-40 -58 -125 -66 -81 -75 -98 -81 -154 -3 -21 -18 -32 -87 -65 -96 -46 -121
-72 -121 -124 0 -83 32 -131 85 -131 19 0 19 -8 -1 -27 -24 -25 -3 -36 78 -38
53 -2 85 -9 115 -25 24 -12 70 -24 103 -27 46 -5 63 -11 71 -25 12 -22 42 -17
75 13 19 18 23 18 50 4 35 -18 48 -19 72 -4 13 8 32 6 77 -9 54 -18 62 -19 77
-6 15 14 19 14 40 0 22 -14 26 -14 46 0 13 8 31 13 42 9 12 -4 30 2 47 13 22
16 52 22 133 27 l104 6 46 43 c25 23 87 66 138 94 51 29 121 73 155 98 34 26
83 57 108 69 25 13 68 41 95 61 54 42 171 116 279 177 39 22 115 70 170 107
55 37 161 102 235 145 162 93 190 116 190 162 0 60 -28 76 -170 97 -82 12
-162 32 -233 57 -60 22 -125 39 -145 39 -20 0 -62 7 -92 15 -30 9 -113 20
-184 25 -76 6 -156 19 -195 31 -36 11 -118 31 -181 44 -177 37 -293 69 -320
88 -30 21 -54 22 -70 3z m71 -26 l24 -20 -30 6 c-49 9 -57 13 -50 24 10 16 31
12 56 -10z m-96 -2 c31 -14 28 -32 -6 -36 -29 -3 -65 20 -55 36 9 15 28 15 61
0z m-84 -28 c21 0 7 -19 -22 -29 -42 -14 -49 -14 -49 4 0 17 30 36 48 30 8 -3
18 -5 23 -5z m204 -23 c22 -17 12 -37 -18 -37 -28 0 -69 28 -62 41 9 14 59 11
80 -4z m-90 -27 c14 -15 16 -23 7 -32 -17 -17 -62 6 -62 32 0 26 31 26 55 0z
m-85 -1 c0 -6 14 -24 31 -40 l32 -30 -17 -50 c-9 -28 -16 -61 -16 -74 0 -38
-135 -214 -152 -197 -4 4 -1 35 8 67 11 43 15 93 12 175 l-3 114 45 23 c52 25
60 27 60 12z m236 -10 c3 -6 -3 -20 -14 -31 -23 -23 -34 -13 -21 20 9 24 24
29 35 11z m-61 -39 c8 -26 33 -25 62 1 19 19 25 20 39 9 29 -25 74 -99 64
-105 -19 -12 -10 -47 20 -73 17 -15 30 -36 30 -49 0 -24 25 -42 52 -38 28 5
32 -14 9 -39 -12 -12 -21 -28 -21 -34 0 -19 -10 -14 -32 14 -11 14 -23 23 -26
20 -2 -3 7 -21 22 -40 35 -47 33 -56 -6 -20 -29 26 -30 27 -15 4 10 -14 20
-32 23 -40 3 -8 9 -22 12 -30 3 -8 7 -33 8 -55 l2 -39 -34 54 c-19 30 -37 66
-40 80 -24 102 -50 142 -118 180 -71 41 -146 107 -146 130 0 10 9 35 21 54 24
41 63 50 74 16z m-310 -96 c12 -64 13 -90 4 -137 -7 -32 -9 -80 -6 -107 4 -29
2 -50 -3 -50 -16 0 -20 40 -18 146 3 95 2 102 -24 142 -16 23 -28 45 -28 49 0
8 53 44 57 39 2 -1 9 -38 18 -82z m603 30 c27 -6 31 -4 26 10 -8 20 -5 20 83
-4 56 -16 77 -18 93 -10 16 8 30 8 58 -1 23 -8 80 -12 153 -11 82 2 127 -2
158 -13 24 -8 57 -15 74 -15 39 0 133 -58 118 -73 -8 -8 -24 -4 -56 11 -30 14
-65 22 -103 23 -31 0 -79 4 -107 10 -93 18 -249 27 -263 16 -14 -11 -129 -14
-139 -3 -4 3 -11 6 -18 6 -8 0 -10 -19 -7 -60 3 -38 1 -60 -6 -60 -11 0 -16
12 -27 68 -4 18 -18 40 -32 50 -46 31 -83 70 -83 88 0 15 3 15 23 -4 13 -12
37 -25 55 -28z m-660 -44 c20 -40 23 -57 20 -155 -1 -60 2 -127 6 -148 7 -32
6 -40 -10 -52 -13 -9 -23 -10 -31 -3 -10 8 -13 6 -13 -6 0 -27 -17 -18 -28 17
-11 31 -11 30 -6 -13 5 -44 4 -45 -11 -20 l-16 25 5 -31 c3 -18 -1 -39 -8 -49
-12 -17 -14 -16 -20 8 -3 14 -1 49 5 77 16 76 6 110 -46 157 -65 59 -62 77 30
169 42 42 81 74 88 72 6 -2 22 -24 35 -48z m320 -57 c54 -74 82 -126 102 -188
23 -72 52 -119 113 -182 33 -35 56 -63 51 -63 -6 0 -15 5 -22 12 -8 8 -18 9
-36 1 -17 -9 -27 -8 -35 0 -6 6 2 -14 19 -46 29 -52 34 -97 11 -97 -17 0 -61
60 -100 136 -26 51 -70 113 -117 165 -97 106 -99 111 -81 157 8 21 18 67 22
105 4 37 11 67 15 67 5 0 30 -30 58 -67z m266 36 c19 -15 24 -25 17 -32 -13
-13 -61 17 -61 38 0 21 13 19 44 -6z m60 -65 c7 -19 -1 -34 -19 -34 -18 0 -28
17 -21 35 7 20 32 19 40 -1z m-211 -57 c19 -19 43 -61 55 -95 13 -34 38 -84
57 -113 35 -51 44 -79 25 -79 -18 0 -98 119 -120 178 -12 31 -32 76 -45 100
-28 51 -18 54 28 9z m1367 12 c0 -15 5 -19 15 -15 8 3 15 2 15 -3 0 -17 -50
-52 -165 -116 -66 -37 -163 -97 -215 -133 -52 -36 -154 -96 -225 -132 -72 -37
-155 -83 -185 -103 -30 -19 -89 -45 -130 -57 -94 -27 -167 -67 -300 -163 -58
-42 -107 -71 -109 -65 -2 6 6 19 17 27 95 71 117 88 131 104 9 10 40 30 68 43
29 14 62 38 73 54 20 28 22 29 45 14 23 -15 28 -14 102 21 91 43 88 42 141 78
22 16 73 42 112 58 40 16 93 47 119 68 25 21 66 48 91 60 44 20 140 105 140
122 0 5 8 4 19 -3 15 -9 24 -7 46 10 15 12 32 22 37 22 6 0 23 11 40 25 16 14
38 25 48 25 21 0 50 36 50 62 0 10 5 18 10 18 6 0 10 -9 10 -21z m-2010 -19
c0 -6 16 -33 35 -61 32 -47 35 -57 35 -124 0 -40 3 -88 6 -106 5 -24 3 -31 -4
-24 -11 10 -23 56 -41 159 -7 40 -20 72 -40 96 -22 27 -27 40 -19 53 10 19 28
23 28 7z m376 -43 c-14 -24 -32 -76 -41 -116 -20 -86 -65 -142 -130 -160 -47
-13 -85 -14 -85 -3 0 13 50 56 98 86 31 20 49 40 66 79 21 47 100 157 113 157
3 0 -7 -20 -21 -43z m-373 -65 c8 -20 20 -69 26 -108 6 -39 13 -78 17 -87 5
-13 0 -17 -18 -17 -13 0 -48 -7 -77 -16 -49 -14 -54 -14 -85 5 -85 53 -74 153
27 252 l50 49 22 -20 c12 -12 29 -38 38 -58z m1707 71 c-1 -21 -13 -52 -20
-48 -10 6 0 55 11 55 5 0 9 -3 9 -7z m-845 -42 c-7 -23 -25 -29 -25 -8 0 14
21 39 28 33 2 -3 1 -14 -3 -25z m805 15 c0 -18 -37 -63 -45 -54 -8 8 22 68 35
68 6 0 10 -6 10 -14z m-1203 -79 c36 -54 55 -96 73 -162 22 -80 29 -94 82
-151 49 -52 58 -67 53 -87 -4 -14 -2 -35 5 -46 14 -27 6 -27 -20 1 -11 12 -20
17 -20 11 0 -6 7 -16 15 -23 15 -13 21 -40 8 -40 -4 0 -18 10 -32 23 l-25 22
22 -32 c26 -36 27 -43 8 -43 -17 0 -162 180 -197 245 -15 28 -32 75 -37 105
-6 30 -15 68 -21 83 -6 16 -11 44 -11 63 0 39 24 104 38 104 5 0 32 -33 59
-73z m1123 49 c0 -3 -4 -8 -10 -11 -5 -3 -10 -1 -10 4 0 6 5 11 10 11 6 0 10
-2 10 -4z m-730 -46 c0 -13 -7 -20 -20 -20 -22 0 -28 25 -7 33 22 10 27 7 27
-13z m10 -91 c0 -4 -4 -10 -9 -13 -14 -9 -34 22 -26 41 6 17 7 17 21 -1 8 -11
14 -23 14 -27z m-485 -79 c17 -77 37 -129 75 -190 l22 -35 -32 35 c-41 46 -75
112 -94 187 -15 58 -13 104 4 86 4 -4 15 -42 25 -83z m236 -52 c27 -58 33 -75
18 -58 -22 26 -99 174 -98 187 1 18 45 -52 80 -129z m238 78 c9 -11 7 -15 -8
-19 -19 -5 -41 9 -41 25 0 13 37 9 49 -6z m-516 -51 c10 -67 46 -130 132 -228
78 -90 95 -129 28 -66 -34 31 -35 32 -20 7 21 -34 20 -34 -45 -3 -29 13 -73
30 -97 36 -77 19 -120 81 -107 152 7 37 84 160 95 152 5 -2 11 -25 14 -50z
m-498 -65 c-28 -30 -1 -31 45 0 53 35 127 54 172 45 34 -7 68 -31 68 -47 0 -5
-30 -23 -66 -40 -47 -22 -90 -33 -152 -39 -48 -5 -102 -14 -120 -20 -28 -9
-36 -8 -54 8 -20 18 -21 18 -14 -4 9 -30 -14 -31 -32 -3 -15 24 -15 24 57 114
l55 68 29 -32 c27 -30 27 -33 12 -50z m1008 51 c-3 -11 -13 -27 -23 -36 -28
-25 -35 0 -10 35 23 32 41 33 33 1z m-77 -5 c3 -8 4 -27 2 -43 l-3 -28 -19 27
c-18 28 -16 58 4 58 6 0 13 -6 16 -14z m-581 -31 c0 -17 -41 -17 -55 0 -12 15
-10 16 21 13 19 -2 34 -7 34 -13z m671 -22 c-10 -10 -19 5 -10 18 6 11 8 11
12 0 2 -7 1 -15 -2 -18z m-6 -46 c0 -6 -9 -2 -20 8 -11 10 -17 22 -13 28 6 10
33 -19 33 -36z m-655 -9 c16 -72 81 -158 121 -158 32 0 8 -17 -79 -57 -167
-76 -208 -85 -422 -88 -115 -1 -206 -7 -231 -15 -68 -20 -144 14 -144 65 0 40
32 64 140 106 191 75 235 88 327 97 73 7 107 17 165 45 94 46 114 47 123 5z
m586 5 c-16 -28 -38 -53 -45 -53 -13 0 -5 27 14 48 25 27 45 30 31 5z m59 -28
c0 -7 -16 -44 -36 -84 -34 -68 -54 -89 -54 -56 0 8 -8 15 -18 15 -11 0 -27 9
-37 20 -30 33 2 69 33 38 9 -9 12 -8 12 5 0 9 9 21 20 27 11 6 27 24 36 41 12
25 18 28 30 18 8 -6 14 -17 14 -24z m220 20 c7 -9 10 -19 6 -22 -8 -9 -38 9
-44 25 -5 17 23 15 38 -3z m-1380 -54 c0 -6 -4 -13 -10 -16 -5 -3 -10 1 -10 9
0 9 5 16 10 16 6 0 10 -4 10 -9z m1048 -123 c-6 -18 -55 -44 -65 -34 -10 9 33
46 54 46 8 0 13 -6 11 -12z m-328 -18 c0 -5 -4 -10 -10 -10 -5 0 -10 5 -10 10
0 6 5 10 10 10 6 0 10 -4 10 -10z m-30 -20 c0 -5 -4 -10 -10 -10 -5 0 -10 5
-10 10 0 6 5 10 10 10 6 0 10 -4 10 -10z m-66 -40 c-14 -14 -39 14 -29 31 5 8
12 6 23 -5 11 -11 13 -19 6 -26z m34 22 c6 -18 -15 -14 -22 4 -4 10 -1 14 6
12 6 -2 14 -10 16 -16z m125 -8 c11 -21 12 -34 3 -56 -10 -26 -8 -31 13 -48
24 -17 24 -19 7 -44 -17 -27 -61 -54 -71 -44 -3 3 -1 17 4 32 12 30 1 35 -16
7 -7 -11 -10 -34 -7 -53 4 -24 1 -38 -10 -47 -24 -20 -36 -4 -36 50 0 42 -3
51 -24 60 -50 23 -111 -38 -71 -71 14 -12 13 -15 -6 -37 -25 -26 -55 -32 -45
-8 3 8 9 22 12 30 5 11 -3 14 -35 12 -23 -1 -41 -5 -41 -9 0 -4 5 -8 10 -8 6
0 10 -4 10 -10 0 -5 -10 -10 -21 -10 -26 0 -115 79 -97 85 7 2 70 25 141 50
100 36 135 45 165 40 33 -6 35 -5 20 8 -22 17 -23 37 -3 37 8 0 29 13 47 30
18 16 34 30 35 30 1 0 9 -12 16 -26z m108 -18 c50 -40 61 -40 29 1 -22 28 -22
28 -2 31 12 2 29 -1 40 -7 10 -5 28 -7 40 -4 27 7 27 4 -1 -46 -15 -26 -27
-37 -33 -31 -7 7 -14 -2 -23 -26 -9 -24 -18 -34 -29 -32 -13 3 -17 15 -17 53
0 49 0 49 -38 56 -42 7 -52 13 -42 28 11 18 30 12 76 -23z m-301 -1 c0 -20
-271 -124 -353 -135 -131 -17 -182 -13 -216 16 -33 27 -42 23 -14 -8 27 -30
-3 -20 -42 13 -26 23 -35 27 -35 15 0 -9 -5 -16 -10 -16 -11 0 -26 28 -18 35
11 11 201 22 258 14 37 -4 95 -4 135 2 70 9 199 48 244 73 27 15 51 11 51 -9z
m285 -45 c0 -21 -52 -37 -68 -21 -10 10 -8 15 8 27 24 18 60 14 60 -6z m-990
-53 c7 -6 -6 -8 -38 -3 -56 7 -67 12 -67 31 0 11 8 11 48 -2 26 -9 52 -20 57
-26z m985 -15 c0 -21 -18 -42 -36 -42 -10 0 -10 7 -3 30 12 33 39 41 39 12z
m-227 -39 c10 -10 -13 -33 -34 -33 -21 0 -33 15 -24 30 7 11 48 14 58 3z
m-268 -62 c11 -26 -10 -31 -47 -12 l-37 18 -27 -28 c-30 -31 -54 -38 -54 -15
0 16 26 46 41 46 5 0 9 4 9 9 0 6 -15 7 -34 4 -19 -3 -36 -1 -40 5 -6 10 11
14 104 25 26 3 74 -27 85 -52z m-230 19 c-3 -5 -15 -10 -26 -10 -10 0 -19 5
-19 10 0 6 12 10 26 10 14 0 23 -4 19 -10z m505 -18 c0 -13 -30 -52 -41 -52
-10 0 -13 43 -2 53 9 10 43 9 43 -1z"/>
<path d="M1200 1215 c7 -8 17 -15 22 -15 6 0 5 7 -2 15 -7 8 -17 15 -22 15 -6
0 -5 -7 2 -15z"/>
<path d="M1200 1185 c13 -14 28 -25 33 -25 6 0 0 11 -13 25 -13 14 -28 25 -33
25 -6 0 0 -11 13 -25z"/>
<path d="M1270 655 c1 -14 38 -61 43 -55 3 3 -6 19 -19 35 -13 17 -24 26 -24
20z"/>
<path d="M630 651 c0 -5 7 -14 15 -21 12 -10 15 -10 15 3 0 8 -7 17 -15 21 -8
3 -15 2 -15 -3z"/>
<path d="M740 470 c0 -5 12 -10 28 -9 24 0 25 1 7 9 -27 12 -35 12 -35 0z"/>
<path d="M700 430 c0 -5 11 -10 25 -10 14 0 25 5 25 10 0 6 -11 10 -25 10 -14
0 -25 -4 -25 -10z"/>
<path d="M646 402 c-7 -11 26 -22 69 -22 20 0 26 3 19 10 -15 15 -80 24 -88
12z"/>
<path d="M540 370 c0 -13 50 -33 59 -24 7 7 -28 34 -46 34 -7 0 -13 -5 -13
-10z"/>
</g>
</svg>
