<?xml version="1.0" standalone="no"?>
<!DOCTYPE svg PUBLIC "-//W3C//DTD SVG 20010904//EN"
 "http://www.w3.org/TR/2001/REC-SVG-20010904/DTD/svg10.dtd">
<svg version="1.0" xmlns="http://www.w3.org/2000/svg"
 width="164.000000pt" height="153.000000pt" viewBox="0 0 164.000000 153.000000"
 preserveAspectRatio="xMidYMid meet">

<g transform="translate(0.000000,153.000000) scale(0.100000,-0.100000)"
fill="#000000" stroke="none">
<path d="M635 1480 c-12 -19 -89 -50 -125 -50 -26 0 -43 -7 -59 -24 -13 -14
-37 -26 -54 -28 -22 -2 -35 -12 -47 -33 -9 -16 -25 -32 -36 -34 -29 -5 -54
-31 -54 -56 0 -13 -9 -26 -25 -33 -27 -13 -59 -67 -51 -88 3 -7 -11 -32 -30
-56 -29 -33 -35 -48 -30 -71 4 -17 0 -37 -10 -52 -14 -21 -14 -27 -1 -52 16
-30 8 -59 -20 -76 -18 -11 -16 -35 6 -64 17 -20 18 -29 9 -49 -7 -14 -25 -32
-41 -41 -29 -14 -29 -16 -23 -72 4 -32 3 -68 -2 -82 -7 -17 -5 -32 5 -52 8
-15 11 -36 8 -46 -3 -11 3 -25 14 -35 15 -13 18 -26 14 -46 -8 -43 35 -129 68
-136 15 -3 37 -19 49 -36 18 -24 27 -28 47 -23 19 4 29 1 40 -15 12 -17 23
-21 47 -17 17 2 44 -2 59 -10 16 -8 36 -12 44 -9 9 4 22 1 29 -5 8 -6 25 -8
38 -5 18 4 40 -3 75 -23 43 -26 60 -30 120 -30 38 0 90 -3 115 -6 40 -6 46 -5
61 18 9 15 29 27 48 30 83 15 99 21 114 43 8 13 21 24 28 24 7 0 18 7 25 15 7
8 25 15 39 15 15 0 36 6 47 14 10 8 29 12 42 9 16 -4 31 2 47 17 19 17 38 23
87 26 50 2 66 7 77 23 7 12 19 21 27 21 7 0 27 12 43 27 17 16 44 39 61 52 24
18 31 30 28 51 -1 15 3 35 11 44 7 8 13 26 13 38 -1 34 -13 121 -19 138 -3 8
-7 31 -9 50 -1 19 -6 51 -9 71 -5 24 -2 46 8 66 10 19 15 56 14 112 0 69 -4
85 -19 94 -10 7 -18 24 -18 40 0 20 -7 31 -25 39 -13 6 -28 20 -31 32 -4 12
-16 32 -26 46 -11 14 -26 40 -33 58 -11 24 -20 32 -39 32 -27 0 -66 41 -66 70
0 23 -17 36 -56 44 -17 4 -44 20 -59 36 -30 31 -54 37 -85 20 -19 -10 -25 -9
-145 22 -82 21 -350 34 -360 18z m110 -34 c36 -28 86 -38 92 -18 3 7 -7 15
-26 18 -47 10 -48 24 -2 24 23 0 46 -7 56 -16 12 -13 19 -14 28 -5 18 18 50
14 43 -5 -5 -14 -1 -16 29 -11 43 7 65 0 65 -19 0 -11 9 -13 38 -8 28 4 43 2
55 -10 21 -21 39 -20 35 1 -5 28 27 26 61 -2 17 -15 43 -30 58 -34 31 -8 43
-42 23 -67 -10 -12 -7 -14 19 -14 24 0 32 -5 37 -25 5 -20 10 -23 34 -19 22 5
29 2 35 -15 3 -12 4 -30 0 -40 -4 -15 0 -20 17 -23 19 -2 24 -10 26 -40 3 -35
6 -38 34 -38 28 0 30 -2 26 -31 -4 -25 -1 -32 18 -39 30 -12 37 -25 19 -40 -8
-7 -12 -17 -8 -23 3 -5 8 -20 9 -31 2 -12 6 -33 10 -47 5 -23 2 -28 -26 -38
-27 -9 -30 -13 -20 -25 15 -19 5 -36 -20 -36 -10 0 -22 -5 -25 -10 -3 -6 5
-10 19 -10 27 0 43 -15 26 -25 -17 -11 -11 -25 10 -25 34 0 36 -29 4 -56 -28
-23 -28 -23 -6 -24 28 0 38 -24 24 -55 -8 -18 -8 -26 4 -35 20 -17 18 -46 -4
-62 -26 -18 -31 -41 -13 -56 14 -11 13 -14 -9 -33 -17 -14 -33 -19 -51 -15
-32 6 -43 -2 -28 -20 6 -8 8 -21 5 -30 -5 -13 -14 -15 -41 -10 -35 7 -35 6
-29 -20 7 -27 6 -27 -33 -22 -22 3 -46 2 -54 -2 -7 -5 -21 -4 -31 1 -15 8 -20
5 -27 -15 -14 -34 -28 -40 -56 -22 -22 15 -24 14 -30 -3 -8 -25 -29 -33 -59
-21 -20 7 -25 5 -29 -11 -3 -11 -14 -19 -26 -19 -12 0 -25 -11 -33 -27 -8 -16
-22 -28 -33 -29 -11 0 -32 -5 -46 -11 -15 -7 -36 -9 -47 -6 -14 3 -24 -2 -31
-16 -12 -22 -40 -28 -57 -11 -6 6 -20 6 -41 -2 -40 -15 -63 1 -63 44 0 26 -2
29 -15 18 -21 -17 -45 3 -37 32 3 15 1 19 -9 16 -8 -2 -15 -19 -17 -36 -3 -26
2 -33 28 -47 17 -9 28 -20 25 -25 -11 -17 -34 -11 -51 14 -9 15 -21 23 -30 19
-8 -3 -26 5 -40 18 l-25 24 -20 -25 c-15 -20 -21 -22 -28 -11 -5 8 -7 20 -4
28 7 17 -2 17 -31 -2 -29 -19 -54 -10 -62 21 -6 25 -19 31 -29 14 -3 -5 -15
-15 -26 -20 -17 -10 -21 -7 -30 19 -12 34 -30 39 -49 16 -19 -23 -28 -18 -41
25 -11 35 -15 39 -36 34 -23 -6 -24 -5 -18 29 6 32 5 35 -12 31 -11 -3 -25 2
-33 11 -11 13 -11 20 0 40 12 22 11 26 -10 43 -20 16 -21 21 -9 40 12 19 11
24 -9 45 -17 18 -19 26 -10 35 20 20 33 13 48 -25 7 -21 13 -40 13 -43 -1 -3
3 -13 8 -22 13 -25 32 -23 24 2 -4 13 0 31 10 47 17 26 17 26 -9 19 -23 -6
-26 -3 -27 21 -1 16 -1 33 0 40 1 7 -9 11 -26 10 -21 -2 -29 4 -37 24 -13 37
-2 59 30 59 23 0 25 3 19 27 -5 21 -1 31 17 44 l23 18 -29 30 c-26 27 -27 31
-11 37 10 4 26 2 36 -5 23 -13 25 1 4 23 -8 8 -15 24 -15 35 0 11 -5 32 -12
47 -11 24 -10 29 14 49 23 20 25 25 13 35 -24 20 -17 48 24 93 31 34 36 45 28
59 -9 14 -6 22 12 42 13 14 32 28 43 32 12 3 18 15 18 34 0 30 5 33 65 42 15
3 20 11 20 33 0 28 3 30 36 30 25 0 43 7 55 22 21 23 105 38 123 20 7 -7 20
-6 41 3 25 10 30 17 26 35 -3 12 -3 25 1 29 14 14 58 5 88 -18z"/>
<path d="M903 1393 c-21 -8 -14 -33 12 -43 24 -9 85 4 85 19 0 25 -59 40 -97
24z m52 -13 c3 -5 -3 -10 -15 -10 -12 0 -18 5 -15 10 3 6 10 10 15 10 5 0 12
-4 15 -10z"/>
<path d="M694 1378 c-8 -12 30 -48 52 -48 22 0 27 20 8 41 -19 21 -49 25 -60
7z"/>
<path d="M1030 1357 c0 -8 9 -22 20 -32 16 -15 23 -16 33 -6 9 10 7 16 -12 32
-27 22 -41 24 -41 6z"/>
<path d="M520 1325 c-10 -12 -7 -17 14 -26 31 -14 76 1 76 26 0 20 -73 21 -90
0z"/>
<path d="M1198 1328 c-49 -17 -24 -57 26 -42 28 9 37 25 24 41 -12 15 -13 15
-50 1z"/>
<path d="M793 1303 c-14 -36 76 -78 105 -49 16 16 15 19 -11 42 -33 28 -84 32
-94 7z m73 -17 c10 -8 16 -18 12 -22 -10 -9 -58 12 -58 26 0 14 23 12 46 -4z"/>
<path d="M1001 1264 c-36 -30 -42 -64 -11 -64 26 0 60 34 60 59 0 31 -16 33
-49 5z m29 -12 c0 -13 -23 -32 -39 -32 -11 0 -10 4 4 20 19 21 35 26 35 12z"/>
<path d="M582 1240 c-39 -24 -38 -44 2 -48 34 -4 76 22 76 48 0 27 -35 26 -78
0z m48 -10 c0 -5 -3 -10 -7 -10 -5 0 -19 -3 -33 -6 -24 -5 -24 -5 -6 10 22 18
46 21 46 6z"/>
<path d="M715 1234 c-11 -12 -13 -20 -6 -27 15 -15 65 4 69 26 5 23 -40 23
-63 1z"/>
<path d="M1184 1231 c-10 -10 -3 -21 14 -21 10 0 23 -5 30 -12 9 -9 16 -8 31
6 10 9 23 16 29 14 5 -2 9 2 8 7 -1 9 -103 15 -112 6z"/>
<path d="M412 1214 c-34 -14 -41 -31 -17 -40 20 -8 75 15 75 31 0 20 -23 24
-58 9z"/>
<path d="M850 1200 c-23 -23 -19 -40 8 -40 24 0 62 28 62 46 0 21 -47 17 -70
-6z"/>
<path d="M250 1160 c-16 -30 -9 -74 12 -78 21 -4 54 57 45 82 -9 23 -44 20
-57 -4z m35 -22 c-10 -31 -25 -47 -25 -26 0 24 11 48 22 48 5 0 6 -10 3 -22z"/>
<path d="M620 1157 c0 -19 50 -41 63 -28 15 15 -10 41 -39 41 -13 0 -24 -6
-24 -13z"/>
<path d="M507 1113 c-4 -3 -7 -13 -7 -21 0 -8 -11 -23 -25 -34 -14 -11 -23
-24 -20 -29 9 -14 37 -11 56 7 9 8 29 17 44 18 41 5 50 21 26 45 -20 20 -61
28 -74 14z m63 -33 c0 -13 -20 -13 -40 0 -12 8 -9 10 13 10 15 0 27 -4 27 -10z"/>
<path d="M1156 1087 c-18 -44 -54 -55 -62 -21 -7 29 -18 30 -69 4 -22 -11 -48
-20 -58 -20 -26 0 -16 -24 11 -28 12 -2 22 -5 22 -8 0 -2 -22 -26 -50 -54 -32
-31 -64 -53 -89 -60 -42 -11 -61 -33 -61 -71 0 -13 -7 -52 -16 -88 -15 -60
-15 -68 0 -119 12 -35 15 -67 11 -93 -4 -22 -4 -88 0 -147 l8 -107 39 -36 39
-35 -26 -12 c-31 -14 -32 -36 -3 -56 40 -28 88 -15 88 25 0 17 37 29 86 29 13
0 24 4 24 9 0 13 -96 34 -125 27 -35 -9 -31 1 8 19 l32 15 -42 -6 c-45 -6 -57
6 -25 26 14 9 13 10 -10 6 -33 -7 -48 12 -23 31 16 11 16 13 3 13 -9 0 -21 14
-27 31 -14 41 -15 209 -1 209 6 0 23 -8 38 -19 15 -10 51 -33 80 -51 53 -33
78 -62 67 -80 -10 -17 -51 -11 -70 10 -10 11 -22 20 -27 20 -16 0 -8 -40 12
-60 26 -26 138 -29 175 -4 16 10 34 14 51 10 16 -4 52 2 98 18 39 14 82 23 94
19 14 -3 31 3 53 21 26 22 28 26 10 26 -33 0 -39 94 -13 200 35 136 31 160
-39 237 -21 22 -47 58 -58 80 -30 56 -51 79 -98 102 l-43 21 -14 -33z m90 -87
c73 -74 98 -140 66 -173 -19 -19 -26 -19 -132 -9 -121 11 -149 23 -180 75 -26
42 -25 53 6 73 25 17 26 17 51 -12 18 -21 23 -23 18 -9 -16 44 -17 55 -7 55 6
0 13 -9 17 -19 3 -11 13 -25 22 -33 15 -12 15 -10 0 19 -22 41 -21 56 1 49 12
-4 27 3 42 19 13 14 27 25 30 25 4 0 33 -27 66 -60z m-191 -181 c35 -21 208
-53 236 -44 10 4 19 2 19 -3 0 -12 -59 -22 -131 -22 -88 0 -218 64 -220 109 0
11 -2 12 -6 3 -3 -7 2 -24 11 -37 20 -30 126 -102 168 -113 l30 -8 -26 -31
c-37 -44 -78 -59 -124 -45 -20 6 -53 16 -73 22 -24 7 -41 21 -53 43 l-17 32 6
-30 c7 -35 42 -75 64 -75 25 0 116 -37 115 -46 -1 -5 -15 -17 -33 -28 l-31
-18 -69 46 c-119 81 -122 90 -85 264 6 31 20 28 33 -8 5 -16 13 -30 16 -30 6
0 1 22 -12 58 -3 6 1 12 9 12 8 0 20 -16 27 -36 7 -19 15 -33 18 -30 3 3 0 20
-6 37 -10 30 -9 35 16 54 l27 22 30 -41 c17 -22 45 -48 61 -57z m285 -89 c11
-11 23 -20 28 -20 18 -1 -5 -156 -30 -197 -10 -17 -33 -36 -50 -42 -38 -13
-47 -7 -25 17 23 25 74 140 81 182 4 19 -6 1 -22 -40 -34 -94 -65 -143 -106
-175 -39 -30 -68 -34 -43 -7 26 29 76 147 82 194 l5 43 -15 -50 c-25 -87 -83
-194 -115 -210 -39 -20 -47 -19 -56 8 -3 12 -15 34 -25 49 -11 14 -19 29 -19
32 0 12 24 6 43 -11 22 -19 22 -20 1 32 -7 17 11 21 21 5 3 -5 11 -10 17 -10
6 0 3 9 -6 19 -22 24 -12 44 17 36 19 -5 20 -4 5 7 -15 11 -12 17 22 69 22 31
46 59 55 63 33 12 54 6 58 -16 4 -20 4 -20 6 4 1 24 10 32 44 37 4 0 16 -8 27
-19z m-437 -577 c-7 -2 -19 -2 -25 0 -7 3 -2 5 12 5 14 0 19 -2 13 -5z"/>
<path d="M710 1081 c0 -11 11 -33 24 -48 22 -25 25 -26 31 -10 10 26 -14 77
-36 77 -12 0 -19 -7 -19 -19z"/>
<path d="M331 1065 c-36 -31 -40 -51 -10 -60 29 -10 74 25 74 56 0 33 -26 35
-64 4z m32 -27 c-13 -12 -25 -19 -29 -15 -10 10 16 37 34 37 13 0 12 -4 -5
-22z"/>
<path d="M1376 1031 c-3 -5 -16 -7 -27 -4 -25 7 -23 -14 3 -31 19 -11 48 7 48
30 0 16 -16 19 -24 5z"/>
<path d="M611 999 c-51 -27 -63 -43 -28 -37 24 5 30 1 39 -21 l11 -26 7 37 c4
20 12 44 20 52 17 22 -4 20 -49 -5z"/>
<path d="M197 998 c-6 -19 14 -58 30 -58 14 0 17 27 7 54 -7 19 -31 21 -37 4z"/>
<path d="M480 950 c-13 -9 -11 -13 9 -31 28 -23 64 -22 69 2 2 9 -8 20 -23 27
-31 14 -36 15 -55 2z"/>
<path d="M342 928 c-7 -7 -12 -25 -12 -41 0 -39 34 -34 38 7 4 34 -9 51 -26
34z"/>
<path d="M406 828 c-9 -35 -7 -48 7 -48 16 0 40 47 32 61 -11 17 -33 9 -39
-13z"/>
<path d="M520 829 c-14 -25 -9 -61 8 -67 7 -2 12 6 12 23 0 14 5 35 10 46 8
15 7 19 -4 19 -9 0 -20 -9 -26 -21z"/>
<path d="M216 778 c-20 -28 -20 -48 -3 -48 19 0 47 33 47 53 0 24 -26 21 -44
-5z"/>
<path d="M727 774 c-8 -8 1 -24 14 -24 5 0 9 7 9 15 0 15 -12 20 -23 9z"/>
<path d="M291 732 c-13 -25 8 -66 37 -70 19 -3 22 1 22 27 0 28 -22 61 -40 61
-5 0 -14 -8 -19 -18z m39 -38 c0 -8 -4 -12 -10 -9 -5 3 -10 13 -10 21 0 8 5
12 10 9 6 -3 10 -13 10 -21z"/>
<path d="M1467 673 c-12 -11 -8 -23 8 -23 8 0 15 7 15 15 0 16 -12 20 -23 8z"/>
<path d="M487 653 c-11 -10 -8 -51 4 -71 9 -15 8 -25 -4 -48 -9 -16 -22 -39
-28 -52 -9 -16 -9 -26 -2 -33 8 -8 15 -3 25 18 11 22 20 27 41 25 29 -3 37 15
12 24 -21 8 -19 27 5 49 22 20 18 35 -11 35 -25 0 -35 25 -19 45 10 12 10 15
-2 15 -8 0 -18 -3 -21 -7z"/>
<path d="M636 638 c-19 -27 -5 -57 27 -60 24 -1 58 -1 70 1 17 3 5 41 -19 60
-34 27 -59 27 -78 -1z m65 -24 c11 -14 10 -15 -11 -12 -13 1 -25 9 -28 16 -5
17 23 15 39 -4z"/>
<path d="M387 582 c-18 -19 -23 -67 -9 -76 8 -5 36 83 29 90 -2 2 -11 -4 -20
-14z"/>
<path d="M1430 557 c0 -27 25 -65 36 -54 4 4 2 13 -4 19 -7 7 -12 22 -12 35 0
13 -4 23 -10 23 -5 0 -10 -10 -10 -23z"/>
<path d="M710 522 c0 -22 26 -59 35 -51 3 4 3 18 0 32 -8 31 -35 45 -35 19z"/>
<path d="M220 437 c0 -21 37 -50 55 -44 19 8 19 21 -1 41 -19 20 -54 21 -54 3z"/>
<path d="M510 391 c-22 -43 -8 -91 26 -91 16 0 28 -8 36 -25 6 -14 20 -25 30
-25 19 0 19 1 -1 26 -12 15 -21 36 -21 46 0 15 -4 18 -17 13 -35 -13 -38 -10
-35 33 3 46 -2 52 -18 23z"/>
<path d="M700 314 c-8 -8 -14 -34 -14 -57 -1 -32 3 -42 17 -45 28 -6 57 27 57
63 0 49 -34 72 -60 39z m29 -56 c-11 -20 -29 -24 -29 -7 0 6 5 20 11 31 9 16
13 18 19 7 5 -7 4 -21 -1 -31z"/>
<path d="M355 310 c-3 -6 -20 -10 -36 -10 -24 0 -29 -4 -25 -17 2 -10 7 -28
11 -41 7 -26 25 -20 25 9 0 16 7 19 45 19 25 0 45 4 45 10 0 15 -58 42 -65 30z"/>
</g>
</svg>
