<?xml version="1.0" standalone="no"?>
<!DOCTYPE svg PUBLIC "-//W3C//DTD SVG 20010904//EN"
 "http://www.w3.org/TR/2001/REC-SVG-20010904/DTD/svg10.dtd">
<svg version="1.0" xmlns="http://www.w3.org/2000/svg"
 width="195.000000pt" height="118.000000pt" viewBox="0 0 195.000000 118.000000"
 preserveAspectRatio="xMidYMid meet">

<g transform="translate(0.000000,118.000000) scale(0.100000,-0.100000)"
fill="#000000" stroke="none">
<path d="M1335 1156 c-5 -3 -56 -18 -112 -36 -103 -30 -159 -65 -184 -112 -28
-53 -51 -167 -50 -255 1 -98 -9 -117 -29 -57 -10 29 -9 49 1 98 7 33 12 66 10
71 -2 6 -7 39 -11 75 -9 72 -31 100 -80 100 -15 0 -39 9 -53 20 -14 11 -38 20
-53 20 -15 0 -42 5 -60 12 -26 9 -39 9 -60 -1 -22 -10 -31 -9 -51 5 -19 12
-37 14 -72 10 -25 -4 -70 -6 -98 -6 -29 1 -62 -4 -73 -10 -14 -8 -26 -8 -40 0
-17 9 -28 7 -54 -9 -18 -12 -45 -21 -59 -21 -17 0 -39 -13 -60 -34 -19 -19
-43 -36 -53 -38 -10 -2 -24 -13 -30 -26 -6 -12 -18 -30 -27 -40 -19 -21 -22
-57 -7 -67 6 -3 10 -37 10 -75 0 -38 7 -99 16 -137 12 -49 17 -130 19 -293 2
-124 6 -233 10 -242 8 -20 13 -22 120 -45 91 -19 113 -19 360 -5 283 17 375
42 426 113 l21 29 31 -26 c18 -15 31 -33 29 -40 -5 -25 18 -54 44 -54 14 0 37
-9 52 -20 23 -17 33 -18 62 -10 19 5 43 7 54 4 10 -4 36 -1 56 6 31 10 42 10
68 -4 40 -20 71 -20 94 1 15 13 23 14 44 5 36 -17 49 -15 82 13 17 14 40 25
51 25 12 0 24 7 27 15 4 8 16 15 28 15 29 0 66 27 66 48 0 9 11 25 24 37 32
28 66 114 66 169 0 24 7 72 16 107 9 34 13 73 9 88 -10 42 -15 98 -19 227 -4
134 -12 157 -73 216 -45 44 -119 79 -228 108 -73 20 -236 36 -260 26z m-751
-81 c20 -11 45 -14 80 -10 44 4 47 4 24 -6 -35 -13 -36 -42 -3 -57 53 -24 96
-7 64 25 -6 6 -8 16 -5 22 11 17 42 13 67 -9 16 -14 19 -20 9 -19 -29 3 -41
-1 -35 -11 3 -5 13 -10 22 -10 9 0 25 -7 35 -17 17 -15 18 -15 18 10 0 32 18
35 51 8 20 -16 22 -23 13 -38 -9 -14 -8 -20 5 -29 13 -10 13 -14 2 -28 -12
-14 -16 -14 -42 -1 -15 8 -36 15 -45 15 -9 0 -32 14 -51 30 -24 22 -44 30 -71
30 -23 0 -51 9 -73 24 -55 38 -125 43 -185 16 -27 -13 -80 -26 -120 -30 -60
-5 -79 -12 -111 -38 -29 -22 -46 -29 -63 -25 -16 4 -21 3 -16 -5 4 -7 14 -12
22 -12 18 0 18 -9 -3 -32 -14 -16 -15 -18 0 -18 9 0 19 5 22 10 10 16 65 12
65 -5 0 -8 5 -15 10 -15 6 0 10 4 10 10 0 5 13 16 29 24 25 14 30 14 41 1 7
-8 9 -22 6 -31 -5 -12 -2 -15 11 -9 53 22 83 12 83 -26 0 -23 23 -25 40 -4 15
18 61 20 77 4 9 -9 21 -8 46 5 19 9 49 16 66 16 16 0 42 5 56 12 19 9 28 9 37
0 18 -18 26 -15 30 10 2 13 10 24 19 26 12 2 15 -4 11 -27 -6 -44 21 -51 58
-16 17 17 35 25 44 22 27 -10 18 -27 -21 -43 -21 -9 -47 -24 -58 -34 -16 -15
-43 -20 -135 -24 -63 -3 -131 -6 -150 -6 -196 1 -209 2 -220 16 -17 19 -27 18
-33 -6 -6 -24 -28 -25 -67 -5 -23 12 -34 13 -54 4 -21 -10 -29 -8 -52 10 -15
11 -40 21 -55 21 -31 0 -38 17 -16 39 10 10 9 14 -5 22 -22 12 -23 38 -3 45 8
4 15 17 15 29 0 16 8 26 23 30 12 4 33 17 47 29 14 12 34 28 45 36 20 15 20
14 1 -8 -20 -23 -14 -44 6 -24 7 7 22 12 35 12 13 0 23 6 23 13 0 8 9 22 20
32 16 14 23 15 34 6 11 -10 21 -9 45 4 22 11 45 14 79 10 26 -4 58 -2 72 4 34
13 41 13 74 -4z m146 -50 c7 -9 11 -18 8 -21 -7 -7 -58 17 -58 28 0 14 37 9
50 -7z m-115 -37 c7 -8 2 -9 -15 -4 -14 3 -31 6 -37 6 -7 0 -13 5 -13 11 0 13
50 3 65 -13z m-92 -6 c-2 -7 7 -12 21 -12 14 0 28 -4 31 -10 4 -6 -10 -10 -34
-10 -52 0 -62 -16 -13 -23 59 -8 172 -33 178 -40 3 -3 3 -10 -1 -16 -10 -18
-88 -12 -130 9 -22 11 -52 20 -67 20 -16 0 -44 7 -63 14 -19 8 -35 13 -35 11
0 -10 58 -33 99 -39 48 -7 81 -22 81 -35 0 -5 -13 -4 -30 2 -22 8 -38 8 -60 0
-23 -9 -32 -8 -41 3 -6 8 -38 30 -70 50 -33 19 -59 38 -59 41 0 3 15 3 34 0
19 -3 36 -3 38 1 2 4 21 17 43 29 42 24 82 26 78 5z m1248 2 c12 -14 11 -16
-5 -13 -11 2 -21 10 -24 17 -5 17 13 15 29 -4z m-1136 -24 c-3 -5 -12 -10 -20
-10 -8 0 -17 5 -20 10 -4 6 5 10 20 10 15 0 24 -4 20 -10z m631 -1 c10 -17
-12 -32 -35 -24 -29 9 -27 35 3 35 14 0 28 -5 32 -11z m480 -16 c-3 -3 -17 -2
-33 1 -20 6 -23 10 -13 16 14 9 57 -7 46 -17z m-1426 -8 c14 -16 10 -18 -14
-9 -9 3 -16 10 -16 15 0 14 16 11 30 -6z m452 -2 c18 -16 25 -43 11 -43 -5 0
-41 7 -81 17 -68 16 -71 18 -50 30 33 18 98 16 120 -4z m950 -8 c34 -5 78 -43
78 -66 0 -14 -22 -10 -41 7 -9 8 -38 23 -65 33 -51 20 -74 46 -32 37 12 -3 40
-8 60 -11z m-1426 -6 c11 -19 -13 -31 -47 -24 -31 7 -32 8 -14 21 23 17 51 18
61 3z m894 3 c0 -5 -11 -19 -25 -32 -14 -13 -25 -29 -25 -35 0 -6 -16 -26 -35
-45 -37 -36 -48 -29 -16 11 10 13 21 34 25 47 13 39 76 84 76 54z m227 -37
c24 -10 51 -13 83 -9 36 5 56 1 86 -14 21 -11 63 -25 92 -31 95 -20 132 -49
132 -104 0 -13 9 -36 20 -50 11 -14 20 -32 20 -39 0 -8 11 -25 25 -38 40 -37
32 -76 -11 -60 -29 11 -32 0 -4 -18 11 -7 20 -22 20 -33 0 -12 -8 -23 -20 -26
-26 -7 -25 -17 2 -54 25 -34 17 -62 -21 -67 -25 -4 -27 -11 -6 -26 13 -9 14
-17 4 -44 -6 -17 -16 -33 -22 -33 -7 -1 -19 -2 -27 -3 -9 0 -15 -12 -16 -27
-1 -14 -4 -31 -8 -38 -11 -17 -47 -13 -63 7 -12 15 -13 14 -11 -13 2 -24 -1
-31 -19 -33 -28 -4 -76 27 -69 44 6 17 -6 18 -21 3 -6 -6 -26 -15 -45 -19
l-33 -8 35 -1 c40 -1 80 -25 80 -47 0 -22 -26 -28 -60 -14 -26 11 -34 9 -65
-10 -30 -19 -41 -21 -61 -11 -13 6 -24 19 -24 30 0 28 -21 37 -33 15 -10 -17
-11 -17 -17 1 -7 18 -9 18 -20 -7 -14 -30 -47 -37 -69 -16 -10 11 -14 10 -22
-4 -14 -25 -59 -23 -66 2 -4 17 -12 20 -42 18 -35 -3 -36 -2 -34 33 2 32 -1
37 -34 48 -34 13 -35 15 -30 53 5 35 3 40 -20 49 -22 8 -24 13 -19 44 7 35 7
35 -29 35 -44 0 -47 23 -5 40 34 14 34 13 18 56 -9 25 -9 39 0 59 15 32 47 35
39 3 -14 -51 27 -96 65 -72 9 6 4 10 -17 14 -41 7 -47 49 -11 77 28 22 53 69
42 80 -3 4 -19 -8 -34 -26 -34 -41 -62 -35 -62 13 0 23 11 45 37 75 33 39 40
43 71 37 32 -5 33 -4 16 10 -18 14 -16 15 16 9 34 -6 34 -5 11 8 l-23 14 26
21 c17 13 22 22 14 24 -23 8 39 58 72 58 27 0 30 -3 30 -29 0 -34 23 -46 70
-36 45 10 36 26 -10 19 -31 -5 -41 -3 -46 10 -7 19 11 45 41 56 29 13 42 12
82 -5z m-1022 -5 c3 -5 1 -10 -4 -10 -6 0 -11 5 -11 10 0 6 2 10 4 10 3 0 8
-4 11 -10z m495 -9 c0 -22 -25 -45 -40 -36 -14 9 -13 21 6 39 21 21 34 20 34
-3z m180 -46 c-7 -9 -15 -13 -18 -10 -3 2 1 11 8 20 7 9 15 13 18 10 3 -2 -1
-11 -8 -20z m784 -22 c9 -22 -3 -36 -20 -22 -19 15 -19 50 0 43 8 -3 17 -12
20 -21z m-994 -126 c0 -20 -30 -57 -46 -57 -19 0 -18 7 7 41 21 30 39 38 39
16z m13 -37 c-3 -11 -9 -20 -13 -20 -5 0 -6 9 -3 20 3 11 9 20 13 20 5 0 6 -9
3 -20z m-668 -324 c18 -20 37 -26 94 -32 39 -3 71 -10 71 -13 0 -15 -67 -30
-110 -25 -70 8 -90 22 -90 61 0 39 5 41 35 9z m725 -74 c-15 -27 -60 -44 -60
-23 0 6 4 11 10 11 5 0 17 14 26 31 12 24 19 28 27 20 9 -9 8 -18 -3 -39z
m-74 -19 c-10 -10 -19 5 -10 18 6 11 8 11 12 0 2 -7 1 -15 -2 -18z m-656 2 c7
-9 10 -18 7 -22 -8 -7 -37 15 -37 28 0 14 16 11 30 -6z"/>
<path d="M1510 797 c0 -15 37 -53 44 -46 2 2 -7 17 -20 32 -14 16 -24 22 -24
14z"/>
<path d="M1640 772 c-21 -27 -26 -52 -10 -52 6 0 10 3 10 8 0 4 4 13 9 21 8
12 15 9 41 -12 31 -26 50 -34 50 -20 0 3 -18 23 -40 43 l-41 37 -19 -25z"/>
<path d="M1274 688 c-4 -13 -15 -33 -24 -45 -13 -17 -16 -34 -12 -68 4 -43 3
-48 -37 -84 -46 -43 -50 -51 -21 -51 23 0 23 1 10 -37 -9 -24 -19 -31 -53 -39
-32 -7 -43 -14 -45 -31 -4 -27 3 -29 24 -8 28 27 97 18 114 -16 9 -16 5 -20
-29 -29 -21 -5 -44 -17 -51 -25 -32 -38 32 -86 86 -63 l29 12 -40 3 c-66 6
-74 12 -46 34 15 12 39 19 67 19 42 0 44 -1 44 -29 0 -17 5 -33 10 -36 6 -3
10 2 10 12 0 25 19 43 45 43 24 -1 55 -22 55 -39 0 -15 16 -14 45 5 13 9 28
13 34 10 9 -6 70 19 121 49 14 9 37 20 53 25 19 7 29 19 33 38 4 19 15 32 35
39 37 14 38 36 2 31 -23 -2 -29 1 -31 20 -3 20 0 22 22 16 29 -7 34 7 10 27
-9 7 -21 25 -27 39 l-10 25 -6 -34 c-5 -30 -8 -32 -19 -18 -19 22 -6 73 24
100 29 25 33 53 7 41 -10 -4 -31 -8 -48 -8 -25 -1 -30 3 -35 28 -7 40 -30 46
-30 8 0 -18 -6 -32 -16 -36 -19 -7 -73 19 -81 40 -9 25 -23 15 -23 -17 0 -26
-3 -30 -22 -27 -21 3 -39 28 -53 72 -5 18 -7 18 -29 -3 -29 -27 -60 -24 -64 7
-4 28 -19 28 -28 0z m25 -74 c-28 -30 -39 -30 -39 0 0 26 14 36 43 28 17 -4
16 -6 -4 -28z m96 27 c3 -5 -3 -12 -14 -16 -11 -3 -38 -24 -60 -45 -23 -22
-46 -40 -52 -40 -18 0 24 57 61 85 36 26 55 31 65 16z m35 -43 c28 -20 30 -21
49 -4 18 16 21 16 50 1 21 -11 43 -14 66 -9 40 7 45 -4 15 -31 -11 -10 -18
-21 -15 -23 3 -3 16 5 30 18 41 39 32 -3 -12 -52 -21 -24 -26 -33 -12 -20 32
28 36 28 41 -1 4 -22 -24 -72 -41 -72 -3 0 -33 -29 -66 -64 -55 -57 -63 -62
-92 -58 -25 4 -33 2 -33 -9 0 -12 -4 -13 -21 -4 -12 7 -37 9 -59 5 -36 -6 -40
-4 -62 29 -13 19 -33 41 -46 47 -15 9 -20 18 -16 28 4 9 8 30 8 46 1 17 6 38
11 47 14 24 153 148 166 148 5 0 23 -10 39 -22z m240 -162 c0 -6 -66 -107 -87
-134 -11 -14 -33 -25 -58 -29 l-40 -6 41 44 c23 24 49 55 59 69 13 19 16 20
10 5 -4 -11 -9 -27 -12 -35 -3 -8 11 9 31 38 30 43 56 65 56 48z m10 -65 c0
-32 -21 -54 -45 -49 -13 3 -12 9 6 45 23 47 39 48 39 4z"/>
<path d="M1451 476 c-71 -66 -129 -92 -153 -68 -12 12 45 52 75 52 9 0 17 5
17 11 0 6 -7 8 -16 5 -9 -3 -22 -6 -29 -6 -19 0 -75 -49 -75 -66 0 -26 42 -37
91 -24 34 10 59 28 115 86 39 41 65 74 58 74 -7 0 -44 -29 -83 -64z"/>
<path d="M1477 413 c-20 -16 -36 -31 -37 -36 0 -14 59 23 70 43 14 26 10 25
-33 -7z"/>
</g>
</svg>
